<?xml version="1.0" encoding="UTF-8"?>
<!DOCTYPE svg PUBLIC "-//W3C//DTD SVG 1.1//EN" "http://www.w3.org/Graphics/SVG/1.1/DTD/svg11.dtd">
<!-- Creator: CorelDRAW 2017 -->
<svg xmlns="http://www.w3.org/2000/svg" xml:space="preserve" width="65mm" height="25mm" version="1.1" style="shape-rendering:geometricPrecision; text-rendering:geometricPrecision; image-rendering:optimizeQuality; fill-rule:evenodd; clip-rule:evenodd"
viewBox="0 0 6500 2500"
 xmlns:xlink="http://www.w3.org/1999/xlink">
 <defs>
  <style type="text/css">
   <![CDATA[
    .fil2 {fill:#2B2A29}
    .fil3 {fill:#221F1F}
    .fil4 {fill:#2892DE}
    .fil1 {fill:#2B2A29;fill-rule:nonzero}
    .fil0 {fill:#2B2A29;fill-rule:nonzero}
    .fil5 {fill:#2892DE;fill-rule:nonzero}
   ]]>
  </style>
   <clipPath id="id0">
    <rect x="-75610.38" y="-14260.4" width="67733.32" height="176388.86"/>
   </clipPath>
 </defs>
 <g id="Слой_x0020_1">
  <metadata id="CorelCorpID_0Corel-Layer"/>
  <g style="clip-path:url(#id0)">
   <image x="-75610.38" y="-14260.4" width="67733.32" height="176388.86" xlink:href="Логотип_Images\Логотип_ImgID1.png"/>
  </g>
  <g id="_2172455507184">
   <path class="fil0" d="M678.73 89.9l4867.45 0c282.85,282.85 565.72,565.68 848.55,848.55l0 1153.86c0,87.43 -35.74,166.88 -93.31,224.46 -57.59,57.58 -137.04,93.32 -224.47,93.32l-5398.22 0c-87.42,0 -166.88,-35.74 -224.46,-93.32 -57.58,-57.58 -93.32,-137.03 -93.32,-224.46l0 -482.54c12.39,4.27 25.67,6.59 39.45,6.59 11.24,0 22.14,-1.54 32.5,-4.43l0 480.38c0,67.56 27.67,129.02 72.24,173.59 44.57,44.57 106.03,72.24 173.59,72.24l5398.22 0c67.57,0 129.02,-27.67 173.59,-72.24 44.58,-44.57 72.24,-106.03 72.24,-173.59l0 -1124.07 -806.39 -806.39 -4837.66 0c-67.56,0 -129.02,27.67 -173.59,72.24 -44.57,44.57 -72.24,106.02 -72.24,173.59l0 480.39c-10.37,-2.89 -21.26,-4.44 -32.5,-4.44 -13.79,0 -27.06,2.31 -39.45,6.56l0 -482.51c0,-87.43 35.74,-166.88 93.32,-224.46 57.58,-57.58 137.04,-93.32 224.46,-93.32z"/>
   <path class="fil1" d="M6364.18 989.32l-545.67 0c-87.42,0 -166.88,-35.74 -224.46,-93.32 -57.58,-57.57 -93.32,-137.03 -93.32,-224.45l0 -545.68 61.41 -25.43 827.48 827.47 -25.44 61.41zm-545.67 -71.95l458.83 0 -704.66 -704.65 0 458.83c0,67.56 27.67,129.01 72.24,173.58 44.58,44.58 106.03,72.24 173.59,72.24z"/>
   <path class="fil1" d="M1051.79 1007.62l-21.03 63.08c17.14,7.26 42.96,15.05 77.48,23.36 34.53,8.3 76.19,12.45 124.99,12.45 77.35,0 136.01,-15.57 175.99,-46.72 39.97,-31.15 59.96,-73.2 59.96,-126.15 0,-30.11 -5.97,-54.77 -17.92,-73.98 -11.93,-19.2 -27.38,-34.65 -46.33,-46.33 -18.95,-11.68 -39.97,-20.63 -63.07,-26.87 -23.1,-6.22 -45.82,-11.41 -68.14,-15.57 -18.69,-3.63 -36.73,-7.4 -54.12,-11.29 -17.39,-3.89 -32.58,-9.21 -45.55,-15.96 -12.98,-6.75 -23.36,-15.32 -31.15,-25.7 -7.79,-10.38 -11.68,-23.88 -11.68,-40.49 0,-29.59 11.81,-52.69 35.43,-69.31 23.62,-16.61 59.05,-24.92 106.29,-24.92 31.15,0 59.7,2.86 85.66,8.57 25.96,5.71 52.43,13.5 79.43,23.36l19.47 -60.74c-24.92,-8.82 -51.79,-16.61 -80.6,-23.36 -28.81,-6.75 -61.65,-10.12 -98.51,-10.12 -41.01,0 -75.79,4.15 -104.34,12.46 -28.56,8.3 -51.79,19.72 -69.7,34.26 -17.91,14.54 -31.02,31.67 -39.32,51.39 -8.31,19.73 -12.46,41.27 -12.46,64.64 0,28.03 5.71,51 17.13,68.91 11.42,17.91 26.09,32.45 44,43.61 17.9,11.16 38.02,19.73 60.35,25.7 22.32,5.97 44.12,11.03 65.41,15.18l56.84 12.46c18.17,4.15 34.13,9.99 47.9,17.52 13.75,7.53 24.65,17 32.7,28.43 8.05,11.41 12.07,26.47 12.07,45.16 0,31.15 -12.59,55.94 -37.77,74.37 -25.18,18.43 -64.5,27.64 -117.97,27.64 -63.34,0 -123.82,-11.68 -181.44,-35.04zm577.8 22.58l0 -247.63c18.17,-9.86 34.91,-17.65 50.23,-23.36 15.31,-5.71 32.31,-8.56 51,-8.56 16.61,0 32.19,2.46 46.72,7.39 14.54,4.93 27,13.11 37.38,24.53 10.38,11.42 18.69,26.48 24.92,45.17 6.23,18.69 9.34,41.53 9.34,68.53 0,27.51 -3.37,50.74 -10.12,69.69 -6.75,18.95 -15.83,34.39 -27.25,46.33 -11.42,11.94 -24.53,20.64 -39.33,26.09 -14.79,5.45 -30.24,8.17 -46.33,8.17 -11.42,0 -21.54,-0.38 -30.37,-1.16 -8.83,-0.78 -16.87,-1.82 -24.14,-3.12 -7.27,-1.3 -14.28,-2.98 -21.03,-5.06 -6.75,-2.08 -13.75,-4.41 -21.02,-7.01zm-72.42 -252.3l0 484.36 72.42 0 0 -168.2c16.09,4.15 32.19,7.26 48.28,9.34 16.09,2.08 30.89,3.11 44.38,3.11 34.27,0 64.12,-5.06 89.56,-15.18 25.43,-10.12 46.59,-24.4 63.46,-42.83 16.87,-18.43 29.46,-40.62 37.77,-66.58 8.3,-25.96 12.46,-54.51 12.46,-85.65 0,-33.75 -4.41,-63.6 -13.24,-89.56 -8.82,-25.96 -21.03,-47.63 -36.6,-65.02 -15.57,-17.39 -34.26,-30.63 -56.07,-39.71 -21.8,-9.09 -45.42,-13.63 -70.86,-13.63 -26.48,0 -50.23,3.89 -71.25,11.68 -21.02,7.79 -40.36,16.09 -58.02,24.92l-24.14 -41.27 -62.29 28.81 24.14 65.41zm475.79 -17.91l0 332.51 72.42 0 0 -290.46c5.19,-5.19 11.55,-10.25 19.08,-15.19 7.52,-4.93 15.83,-9.21 24.92,-12.84 9.08,-3.64 18.56,-6.62 28.42,-8.96 9.86,-2.34 19.47,-3.5 28.81,-3.5 11.42,0 19.99,0.52 25.7,1.55 5.71,1.04 10.9,2.08 15.57,3.12l12.46 -63.85c-6.75,-2.08 -13.1,-3.51 -19.08,-4.29 -5.97,-0.78 -13.62,-1.16 -22.97,-1.16 -13.5,0 -26.6,1.55 -39.32,4.67 -12.72,3.11 -24.27,7 -34.65,11.68 -10.39,4.67 -19.73,9.6 -28.04,14.79 -8.31,5.19 -15.05,9.87 -20.24,14.02l-9.35 -39.71 -98.9 0 0 57.62 45.17 0zm524.85 304.48l37.38 41.26 49.83 -39.71 -32.7 -49.06 0 -167.42c0,-24.4 -1.95,-46.46 -5.84,-66.19 -3.9,-19.73 -11.29,-36.6 -22.2,-50.62 -10.9,-14.01 -26.34,-24.91 -46.33,-32.7 -19.98,-7.79 -46.07,-11.68 -78.26,-11.68 -32.71,0 -61.13,2.85 -85.27,8.57 -24.14,5.71 -45.29,11.93 -63.46,18.68l18.69 53.73c23.36,-8.3 44.25,-14.01 62.68,-17.13 18.43,-3.11 38.29,-4.67 59.57,-4.67 31.15,0 53.34,6.62 66.58,19.86 13.24,13.23 19.86,36.73 19.86,70.47l0 18.69 -110.58 0c-19.2,0 -38.02,2.33 -56.45,7.01 -18.43,4.67 -34.78,12.2 -49.06,22.58 -14.28,10.38 -25.83,23.62 -34.65,39.71 -8.83,16.1 -13.24,35.57 -13.24,58.41 0,21.8 3.89,40.36 11.68,55.68 7.79,15.31 18.3,27.9 31.54,37.76 13.23,9.87 28.55,17.14 45.94,21.81 17.39,4.67 35.95,7 55.68,7 15.05,0 29.33,-1.29 42.83,-3.89 13.49,-2.6 26.08,-5.97 37.76,-10.12 11.69,-4.15 22.33,-8.7 31.93,-13.63 9.61,-4.93 18.3,-9.73 26.09,-14.4zm-17.91 -150.3l0 95.01c-14.02,9.34 -29.46,18.03 -46.33,26.08 -16.88,8.05 -36.99,12.07 -60.36,12.07 -10.9,0 -21.41,-1.03 -31.53,-3.11 -10.12,-2.08 -18.95,-5.71 -26.48,-10.9 -7.52,-5.2 -13.63,-12.07 -18.3,-20.64 -4.67,-8.57 -7.01,-19.08 -7.01,-31.54 0,-22.84 7.92,-39.71 23.75,-50.62 15.84,-10.89 35.18,-16.35 58.02,-16.35l108.24 0zm127.71 -200.9l106.68 302.92c5.19,14.53 10.64,27.38 16.35,38.54 5.71,11.16 12.59,20.64 20.64,28.42 8.04,7.79 17.65,13.63 28.81,17.52 11.16,3.9 24.53,5.84 40.1,5.84 15.58,0 29.08,-1.94 40.49,-5.84 11.43,-3.89 21.29,-9.6 29.6,-17.13 8.3,-7.53 15.44,-16.87 21.41,-28.03 5.97,-11.16 11.55,-24.01 16.74,-38.55l106.69 -303.69 -68.53 -17.13 -107.46 308.36c-5.71,15.58 -11.42,26.22 -17.13,31.93 -5.71,5.71 -12.46,8.57 -20.25,8.57 -8.31,0 -15.32,-2.86 -21.02,-8.57 -5.71,-5.71 -11.43,-16.61 -17.14,-32.71l-107.46 -307.58 -68.52 17.13zm494.48 -182.22l0 561.45 72.42 0 0 -175.99 32.7 0c12.98,0 22.84,1.95 29.59,5.84 6.75,3.89 14.28,10.25 22.58,19.08l157.31 162.75 51.39 -45.95 -171.32 -178.32 136.28 -151.85 -55.29 -40.49 -130.05 148.73c-6.74,7.27 -13.49,11.95 -20.24,14.02 -6.75,2.08 -16.1,3.11 -28.04,3.11l-24.91 0 0 -322.38 -72.42 0zm439.19 228.94l0 332.51 72.42 0 0 -390.13 -117.59 0 0 57.62 45.17 0zm-4.67 -147.18c8.3,9.87 20.76,14.8 37.37,14.8 16.62,0 29.07,-4.93 37.38,-14.8 8.31,-9.86 12.46,-21.8 12.46,-35.82 0,-14.02 -4.15,-26.08 -12.46,-36.21 -8.31,-10.12 -20.76,-15.18 -37.38,-15.18 -16.61,0 -29.07,5.06 -37.37,15.18 -8.31,10.13 -12.47,22.19 -12.47,36.21 0,14.02 4.16,25.96 12.47,35.82z"/>
   <rect class="fil2" x="2490.37" y="1920.06" width="3629.26" height="44.99" rx="21.94" ry="22.5"/>
   <path class="fil3" d="M4173.78 1780.79l0 0zm-465.61 66.41l0 -1.72c0.24,-10.17 4.92,-23.91 15.24,-41.79 5.8,-10.06 10.69,-18.14 16.93,-27.49 40.47,-60.7 84.14,-119.25 133.61,-172.71 4.07,-4.4 7.42,-6.78 11.24,-11.73 3.99,-5.17 5.78,-6.8 10.22,-11.22l64.33 -67.39c15.04,-15.05 29.44,-27.87 44.41,-42.89 7.93,-7.95 14.98,-13.37 22.97,-21.44l46.22 -41.09c8.5,-6.61 14.72,-13.04 23.2,-19.68 33.11,-25.91 64.6,-52.89 99.29,-76.84 9.35,-6.45 16.46,-12.01 26.04,-18.38 26.16,-17.42 50.85,-36.14 77.97,-52.21 26.74,-15.84 89.52,-53.01 133.35,-31.69 59.55,28.98 -17.08,169.86 -40.42,222.64l-14.78 28.1c-17.03,34.06 -36.16,65.34 -55.58,97.58l-131.48 197.81c-4.99,7.31 -14.91,17.34 -17.15,25.73 5.24,-3.51 8.71,-8.28 14.66,-12.9 45.3,-35.18 51.94,-44.58 112.66,-69.6 25.66,-10.58 50.5,-17.17 79.13,-25.02 8.85,-2.43 57.96,-19.78 57.12,6.35 -0.67,21.12 -61.13,50.49 -73.66,56.76 -11.66,5.83 -22.63,11.28 -34.7,17.37 -33.73,17 -149.91,61.4 -153.68,106.68 21.13,10.15 94.7,-18.83 114.57,-30.92 10.37,-6.32 21.95,-11.52 32.95,-17.6 37.15,-20.52 70.99,-46.46 106.42,-69.71 19.91,-13.06 44.44,-63.4 67.05,-57.4 17.34,4.6 1.48,23.89 -4.3,29.78 -12.7,12.93 -28.68,21.98 -40.55,36.04l-17.66 20.62c-2.72,3.05 -2.7,3.8 -5.41,6.85l-33.84 41.21c-7.7,10.19 -12.52,18.93 -18.59,30.41 16.43,-3.82 43.11,-27.62 57.53,-38.95l50.05 -43.38c9.79,-8.63 18.25,-19.99 28.5,-28.17l54.99 -56.81c12.28,-12.11 32.38,-36.32 43.48,-49.95 27.78,-34.12 71.56,-109.33 97.82,-148.77l159.9 -252.1c2.8,-4.28 4.45,-7.51 7.01,-11.37 14.93,-22.49 16.48,-37.58 39.83,-32.14 0,11.54 5.65,-3.33 -6.65,20.91l-52.42 96.14c-26.1,43.99 -50.64,88.38 -79.07,130.76 -4.11,6.13 -7.71,11.25 -11.65,17.45 -2.42,3.79 -3.24,5.63 -5.98,9.34l-80.09 112.89c-12.77,17.07 -23.03,34.44 -34.18,53.12 -18.73,31.41 -74.58,122.39 -82.22,155.18l36.12 -22.09c7.17,-4.24 11.37,-7.26 17.49,-11.6l34.57 -23.63c15.47,-11.26 57.98,-44.66 76.28,-38.26 7.5,2.62 10.05,9.9 7.83,19.67 -6.69,29.42 -56.25,94.02 -49.76,121.85 22.36,0 70.8,-24.72 90.9,-36.22 8.68,-4.97 13.54,-13.55 21.54,-19.81 8.5,-6.64 15.73,-12.79 23.85,-19.03l50.07 -34.17c17.21,-10.16 34.68,-25.1 54.74,-29.59 18.76,-4.2 17.34,10.2 11.63,19.37 -12.51,20.13 -76.65,55.33 -99.49,69 -24.44,14.62 -32.79,14.28 -49.34,34.89 -4.4,5.48 -14.33,20.44 -14.61,28.05 -1.37,36.71 174.56,-13.01 203.43,-21.49l96.49 -29.1c54.81,-17.51 111.3,-32.17 169.15,-40.67 16.15,-2.38 26.7,-8.66 26.7,9.85 -7.92,5.31 -3.31,4.93 -16.15,6.83 -65.31,9.64 -130.24,26.74 -192.33,46.59 -43.74,13.97 -90.41,25.04 -134.4,38.67 -34.89,10.8 -139.95,43.44 -170.12,11.98 -12.02,-12.53 -8.21,-24.58 -4.67,-39.74 -53.68,28.4 -120.77,51.98 -80.66,-37.77 8.46,-18.92 34.87,-64.65 37.77,-77.1 -11.06,5.85 -19.47,11.96 -30.02,18.99 -10.53,7.02 -18.68,12.84 -28.83,20.18 -19.5,14.11 -37.87,27.57 -59.59,38.43 -20.42,10.21 -64.71,26.18 -46.32,-18.76 4.79,-11.71 9.43,-23.77 14.64,-34.36 4.33,-8.79 12.82,-22.68 15.34,-32.14 -9.6,6.43 -26.72,29.15 -36.37,38.68l-71.18 66.66c-26.55,23.14 -83.36,69.94 -119.12,61.6 -3.54,-15.18 8.99,-29.79 16.55,-41.65l24.8 -34.93c-6.09,1.63 -78.27,47.76 -93.93,56.17 -11.15,5.99 -21.31,10.61 -32.67,16.34 -10.77,5.43 -23.99,10.37 -36.6,13.94 -13.2,3.73 -26.13,6.72 -43.52,5.41 -24.77,-1.87 -41.13,-17.06 -27.39,-38.03 15.62,-23.83 43.83,-41.74 66.86,-57.2 20.05,-13.46 42.61,-23.87 64.63,-34.92 25.74,-12.9 110.66,-49.67 125.59,-71.98 -10.4,2.43 -22.02,6.2 -32.49,8.86 -30.58,7.78 -61.52,18.96 -88.5,32.49 -38.58,19.35 -88.32,51.82 -119.88,82.3l-61.26 59.73c-9.19,9.51 -56.78,73.46 -69.83,90.99 -28.83,38.69 -59.7,76.07 -90.22,113.47l-17.87 21.96c-6.23,7.97 -11.82,14.22 -17.91,21.91l-73.79 88.56c-18.5,22 -36.3,44.19 -55.81,65.18 -18.74,20.15 -24.64,39.39 -44.8,28.72 0,-10.31 4.96,-13.27 9.62,-19.48 4.24,-5.64 7.83,-10.43 11.82,-15.75l183.45 -231.61c17.18,-19.71 32.63,-40.56 50.49,-59.78 13.27,-14.27 24.65,-30.41 38.27,-44.44l19.87 -21.48c2.82,-3.37 2.89,-4.23 6.16,-7.62 39.61,-41.15 150.66,-201.41 185.24,-257.39l10.92 -16.65c3.9,-6.05 6.72,-10.9 10.72,-16.85 29.84,-44.46 55.59,-91.42 83.31,-137.25 24.52,-40.54 107.06,-205.93 72.13,-241.19 -16.71,-16.86 -72.35,7.47 -85.72,14.72 -73.84,40.08 -130.77,85.66 -196.33,134.49 -15.74,11.73 -29.84,25.3 -45.28,37.43 -15.07,11.85 -30.75,24.88 -44.15,38.56l-28.48 26.65c-18.4,14.67 -38.54,37.32 -55.75,54.52l-154.96 177.4c-4.76,6.11 -101.28,129.3 -77.29,136.63 18.48,5.64 166.05,-69.7 190.61,-84.57 14.9,-9.03 94.3,-53.49 101.75,-63.66 -14.18,-0.32 -23.43,-16.03 12.62,-21.09 13.62,-1.9 23.02,0.43 25.67,10.37 0.25,15.34 -59.62,47.67 -75.69,57.55l-111.08 65.06c-27.97,16.74 -55.03,33.19 -86.49,45.22 -45.23,17.3 -82.82,18.78 -83.6,-9.53zm866.88 -144.52l0 0z"/>
   <path class="fil4" d="M693.69 1249.99c0,-13.79 -5.62,-26.33 -14.66,-35.41l-0.07 0.07c-9.09,-9.09 -21.61,-14.74 -35.35,-14.74l-194.04 0 0 -194.05c0,-13.73 -5.65,-26.24 -14.74,-35.34l0 -0.14c-9,-9 -21.52,-14.59 -35.34,-14.59 -13.74,0 -26.26,5.64 -35.35,14.73 -9.09,9.1 -14.74,21.61 -14.74,35.34l0 194.05 -194.05 0c-13.73,0 -26.24,5.65 -35.33,14.74l-0.14 0c-9.01,9 -14.6,21.51 -14.6,35.34 0,13.74 5.64,26.26 14.74,35.35 9.09,9.09 21.6,14.74 35.33,14.74l194.05 0 0 194.04c0,13.73 5.65,26.25 14.74,35.35l-0.07 0.06c9.08,9.05 21.62,14.67 35.41,14.67 13.8,0 26.33,-5.62 35.42,-14.67l-0.07 -0.06c9.09,-9.1 14.74,-21.62 14.74,-35.35l0 -194.04 194.04 0c13.74,0 26.26,-5.65 35.35,-14.74l0.07 0.07c9.04,-9.09 14.66,-21.62 14.66,-35.42z"/>
   <path class="fil5" d="M1068.14 1403.59l0 561.45 76.32 0 0 -561.45 -76.32 0zm193.12 246.85l0 314.6 72.42 0 0 -310.7c15.05,-7.27 32.19,-14.28 51.4,-21.03 19.2,-6.75 40.75,-10.12 64.63,-10.12 26.47,0 47.5,7.27 63.07,21.8 15.58,14.54 23.36,38.16 23.36,70.87l0 249.18 72.42 0 0 -253.08c0,-20.24 -2.33,-39.58 -7,-58.01 -4.68,-18.43 -12.47,-34.53 -23.37,-48.28 -10.9,-13.76 -25.56,-24.66 -43.99,-32.71 -18.43,-8.04 -41.41,-12.07 -68.92,-12.07 -27.51,0 -52.56,3.51 -75.14,10.51 -22.59,7.01 -44.78,15.71 -66.59,26.09l-24.14 -41.27 -62.29 28.81 24.14 65.41zm474.24 -17.91l0 332.51 72.42 0 0 -332.51 130.04 0 0 -57.62 -130.04 0 0 -45.95c0,-10.9 0.9,-21.28 2.72,-31.14 1.82,-9.87 5.32,-18.3 10.51,-25.31 5.19,-7.01 12.33,-12.59 21.41,-16.74 9.09,-4.16 21.16,-6.23 36.22,-6.23 13.49,0 25.43,0.77 35.82,2.33 10.38,1.56 22.06,4.16 35.04,7.79l12.46 -54.51c-15.06,-4.15 -29.33,-7.14 -42.83,-8.95 -13.5,-1.82 -27.52,-2.73 -42.05,-2.73 -25.44,0 -47.11,3.25 -65.02,9.73 -17.92,6.49 -32.58,15.58 -44,27.26 -11.42,11.68 -19.73,25.44 -24.92,41.27 -5.19,15.83 -7.78,33.09 -7.78,51.78l0 51.4 -55.29 0 0 57.62 55.29 0zm433.73 286.57c-38.93,0 -69.04,-12.59 -90.32,-37.77 -21.29,-25.18 -31.93,-62.17 -31.93,-110.97 0,-49.32 10.51,-86.56 31.54,-111.74 21.02,-25.18 51.26,-37.77 90.71,-37.77 38.42,0 68.14,12.59 89.17,37.77 21.02,25.18 31.53,62.42 31.53,111.74 0,48.8 -10.38,85.79 -31.14,110.97 -20.77,25.18 -50.62,37.77 -89.56,37.77zm-152.62 0c15.57,18.69 35.82,33.35 60.74,43.99 24.92,10.65 55.29,15.97 91.11,15.97 34.78,0 64.63,-5.32 89.55,-15.97 24.92,-10.64 45.29,-25.3 61.13,-43.99 15.83,-18.69 27.38,-40.88 34.65,-66.58 7.27,-25.7 10.9,-53.34 10.9,-82.94 0,-29.58 -3.89,-57.1 -11.68,-82.54 -7.79,-25.43 -19.6,-47.5 -35.43,-66.19 -15.83,-18.69 -36.08,-33.35 -60.74,-44 -24.66,-10.64 -53.86,-15.96 -87.61,-15.96 -32.7,0 -61.38,5.32 -86.04,15.96 -24.66,10.65 -45.17,25.31 -61.52,44 -16.35,18.69 -28.55,40.89 -36.6,66.58 -8.05,25.7 -12.07,53.34 -12.07,82.93 0,29.59 3.5,57.11 10.51,82.55 7.01,25.44 18.04,47.5 33.1,66.19z"/>
  </g>
 </g>
</svg>
