<?xml version="1.0" encoding="UTF-8"?>
<!DOCTYPE svg PUBLIC "-//W3C//DTD SVG 1.1//EN" "http://www.w3.org/Graphics/SVG/1.1/DTD/svg11.dtd">
<!-- Creator: CorelDRAW 2017 -->
<svg xmlns="http://www.w3.org/2000/svg" xml:space="preserve" width="9mm" height="9mm" version="1.1" style="shape-rendering:geometricPrecision; text-rendering:geometricPrecision; image-rendering:optimizeQuality; fill-rule:evenodd; clip-rule:evenodd"
viewBox="0 0 900 900"
 xmlns:xlink="http://www.w3.org/1999/xlink">
 <defs>
  <style type="text/css">
   <![CDATA[
    .fil1 {fill:black}
    .fil0 {fill:#ECF3F9}
   ]]>
  </style>
 </defs>
 <g id="Слой_x0020_1">
  <metadata id="CorelCorpID_0Corel-Layer"/>
  <circle class="fil0" cx="450" cy="450" r="445.82"/>
  <path class="fil1" d="M544.58 308.44c4.93,-2.84 11.23,-1.15 14.08,3.78l0.11 0.18c2.85,4.93 1.18,11.23 -3.73,14.09 -1.64,0.95 -3.41,1.39 -5.17,1.39 -3.56,0 -7.01,-1.84 -8.92,-5.14l-0.12 -0.22c-2.86,-4.92 -1.18,-11.23 3.75,-14.08zm-141.99 -122.26c119.34,0 216.42,97.09 216.42,216.41 0,44.8 -13.68,86.46 -37.08,121.03l119.85 119.86c7.76,7.77 12.04,18.12 12.04,29.15 0,11.04 -4.28,21.39 -12.04,29.15 -7.76,7.76 -18.11,12.04 -29.15,12.04 -11.03,0 -21.38,-4.28 -29.15,-12.04l-119.86 -119.86c-34.57,23.4 -76.23,37.08 -121.03,37.08 -119.32,0 -216.41,-97.09 -216.41,-216.41 0,-119.34 97.09,-216.41 216.41,-216.41zm255.47 501.03c3.87,3.87 9.05,6 14.57,6 5.54,0 10.71,-2.13 14.57,-6 3.88,-3.87 6.01,-9.04 6.01,-14.58 0,-5.53 -2.13,-10.7 -6,-14.57l-88.47 -88.46c-8.92,10.47 -18.67,20.22 -29.14,29.14l88.46 88.47zm-103.09 -103.09c10.54,-8.85 20.3,-18.61 29.15,-29.15l-14.63 -14.62c-8.77,10.61 -18.53,20.37 -29.14,29.14l14.62 14.63zm-152.38 14.27c107.97,0 195.8,-87.83 195.8,-195.8 0,-107.95 -87.83,-195.8 -195.8,-195.8 -107.95,0 -195.8,87.85 -195.8,195.8 0,107.97 87.83,195.8 195.8,195.8zm76.09 -348.21c2.86,-4.93 9.16,-6.61 14.09,-3.76 18.01,10.39 33.97,23.71 47.41,39.58 3.67,4.33 3.13,10.84 -1.2,14.52 -1.94,1.65 -4.31,2.44 -6.66,2.44 -2.92,0 -5.83,-1.23 -7.87,-3.64 -11.91,-14.05 -26.04,-25.84 -41.99,-35.06 -4.93,-2.85 -6.62,-9.15 -3.78,-14.08z"/>
 </g>
</svg>
