<?xml version="1.0" encoding="UTF-8"?>
<!DOCTYPE svg PUBLIC "-//W3C//DTD SVG 1.1//EN" "http://www.w3.org/Graphics/SVG/1.1/DTD/svg11.dtd">
<!-- Creator: CorelDRAW 2017 -->
<svg xmlns="http://www.w3.org/2000/svg" xml:space="preserve" width="34mm" height="34mm" version="1.1" style="shape-rendering:geometricPrecision; text-rendering:geometricPrecision; image-rendering:optimizeQuality; fill-rule:evenodd; clip-rule:evenodd"
viewBox="0 0 3400 3400"
 xmlns:xlink="http://www.w3.org/1999/xlink">
 <defs>
  <style type="text/css">
   <![CDATA[
    .fil1 {fill:black}
    .fil0 {fill:#2892DE}
   ]]>
  </style>
 </defs>
 <g id="Слой_x0020_1">
  <metadata id="CorelCorpID_0Corel-Layer"/>
  <g id="_1842494842672">
   <path id="XMLID_390_" class="fil0" d="M1884.5 1568.22l-369.01 0c-36.39,0 -65.89,29.5 -65.89,65.89l0 250.4 -250.4 0c-36.39,0 -65.89,29.5 -65.89,65.89l0 369.01c0,36.39 29.5,65.89 65.89,65.89l250.4 0 0 250.4c0,36.39 29.5,65.89 65.89,65.89l369.01 0c36.39,0 65.89,-29.5 65.89,-65.89l0 -250.4 250.4 0c36.39,0 65.89,-29.5 65.89,-65.89l0 -369.01c0,-36.39 -29.5,-65.89 -65.89,-65.89l-250.4 0 0 -250.4c0,-36.39 -29.5,-65.89 -65.89,-65.89l0 0zm250.39 448.08l0 237.21 -250.39 0c-36.4,0 -65.9,29.5 -65.9,65.9l0 250.39 -237.21 0 0 -250.39c0,-36.4 -29.5,-65.9 -65.9,-65.9l-250.39 0 0 -237.21 250.39 0c36.4,0 65.9,-29.5 65.9,-65.9l0 -250.4 237.21 0 0 250.4c0,36.4 29.5,65.9 65.9,65.9l250.39 0z"/>
   <path id="XMLID_393_" class="fil1" d="M3057.41 882.92l-329.47 0 0 -197.68c0,-36.39 -29.5,-65.89 -65.89,-65.89l-26.36 -0.01 0 -395.36c0,-116.27 -94.59,-210.86 -210.86,-210.86l-1449.67 0c-116.27,0 -210.86,94.59 -210.86,210.86l0 395.37 -26.36 -0.01c-36.39,0 -65.89,29.5 -65.89,65.9l0 197.68 -329.47 0c-181.67,0 -329.47,147.8 -329.47,329.47l0 625.99c0,36.4 29.5,65.9 65.89,65.9 36.4,0 65.9,-29.5 65.9,-65.9l0 -625.99c0,-109 88.68,-197.68 197.68,-197.68l2714.83 0c109,0 197.68,88.68 197.68,197.68l0 1845.03c0,109 -88.68,197.68 -197.68,197.68l-2714.83 0c-109,0 -197.68,-88.68 -197.68,-197.68l0 -625.99c0,-36.4 -29.5,-65.89 -65.89,-65.89 -36.4,0 -65.9,29.49 -65.9,65.89l0 625.99c0,181.67 147.8,329.47 329.47,329.47l2714.83 0c181.67,0 329.47,-147.8 329.47,-329.47l0 -1845.03c0,-181.67 -147.8,-329.47 -329.47,-329.47l0 0zm-2161.32 -658.94c0,-43.6 35.47,-79.07 79.07,-79.07l1449.67 0c43.6,0 79.07,35.47 79.07,79.07l0 395.36 -158.14 0 0 -250.39c0,-36.4 -29.5,-65.9 -65.9,-65.9l-1159.73 0c-36.39,0 -65.89,29.5 -65.89,65.9l0 250.39 -158.15 0 0 -395.36zm1291.52 395.36c-36.39,0 -65.89,29.5 -65.89,65.9l0 197.68 -843.45 0 0 -197.68c0,-36.39 -29.49,-65.89 -65.89,-65.89l-26.36 -0.01 0 -184.5 1027.95 0 0 184.5 -26.36 0zm-1383.77 263.58l0 -131.79 342.65 0 0 131.79 -342.65 0zm1449.66 0l0 -131.79 342.65 0 0 131.79 -342.65 0z"/>
   <path id="XMLID_492_" class="fil1" d="M79.01 2200.8c17.33,0 34.33,-7.05 46.58,-19.31 12.26,-12.25 19.31,-29.26 19.31,-46.59 0,-17.32 -7.05,-34.33 -19.31,-46.58 -12.25,-12.26 -29.26,-19.31 -46.58,-19.31 -17.33,0 -34.34,7.05 -46.59,19.31 -12.26,12.25 -19.31,29.26 -19.31,46.58 0,17.33 7.05,34.34 19.31,46.59 12.25,12.26 29.26,19.31 46.59,19.31z"/>
  </g>
 </g>
</svg>
