<?xml version="1.0" encoding="UTF-8"?>
<!DOCTYPE svg PUBLIC "-//W3C//DTD SVG 1.1//EN" "http://www.w3.org/Graphics/SVG/1.1/DTD/svg11.dtd">
<!-- Creator: CorelDRAW 2017 -->
<svg xmlns="http://www.w3.org/2000/svg" xml:space="preserve" width="8mm" height="5mm" version="1.1" style="shape-rendering:geometricPrecision; text-rendering:geometricPrecision; image-rendering:optimizeQuality; fill-rule:evenodd; clip-rule:evenodd"
viewBox="0 0 800 500"
 xmlns:xlink="http://www.w3.org/1999/xlink"
 enable-background="new 0 0 512 512">
 <defs>
  <style type="text/css">
   <![CDATA[
    .fil0 {fill:black}
   ]]>
  </style>
 </defs>
 <g id="Слой_x0020_1">
  <metadata id="CorelCorpID_0Corel-Layer"/>
  <path class="fil0" d="M762.46 245.42c-63.06,-132.29 -205.34,-217.78 -362.47,-217.78 -157.13,0 -299.41,85.49 -362.47,217.78 -1.38,2.9 -1.38,6.27 0,9.17 63.06,132.3 205.34,217.78 362.47,217.78 58.96,0 115.69,-11.63 168.61,-34.58 5.4,-2.34 7.87,-8.62 5.53,-14.01 -2.34,-5.4 -8.61,-7.88 -14,-5.54 -50.23,21.79 -104.11,32.83 -160.14,32.83 -147.14,0 -280.39,-78.75 -341.02,-201.06 60.63,-122.32 193.88,-201.07 341.02,-201.07 147.14,0 280.39,78.75 341.02,201.07 -30.2,60.92 -78.79,112.03 -140.82,148.02 -5.09,2.95 -6.82,9.47 -3.87,14.56 2.95,5.08 9.47,6.81 14.56,3.86 67.3,-39.05 119.72,-95.02 151.58,-161.86 1.39,-2.9 1.39,-6.27 0.01,-9.17l-0.01 0zm-315.42 -76.64c-6.7,0 -12.95,1.95 -18.23,5.3 -9.18,-3.5 -18.84,-5.3 -28.82,-5.3 -44.78,0 -81.22,36.44 -81.22,81.23 0,44.78 36.44,81.22 81.22,81.22 44.79,0 81.22,-36.44 81.22,-81.22 0,-9.99 -1.8,-19.64 -5.29,-28.82 3.35,-5.28 5.29,-11.53 5.29,-18.23 0,-18.85 -15.33,-34.18 -34.17,-34.18zm12.87 34.18c0,7.1 -5.77,12.87 -12.87,12.87 -7.1,0 -12.88,-5.77 -12.88,-12.87 0,-7.1 5.78,-12.88 12.88,-12.88 7.1,0 12.87,5.78 12.87,12.88zm-59.92 106.97c-33.04,0 -59.92,-26.88 -59.92,-59.92 0,-33.05 26.88,-59.93 59.92,-59.93 5.03,0 9.95,0.63 14.71,1.84 -1.18,3.46 -1.84,7.17 -1.84,11.04 0,18.84 15.34,34.17 34.18,34.17 3.86,0 7.57,-0.65 11.04,-1.84 1.2,4.77 1.83,9.68 1.83,14.72 0,33.04 -26.88,59.92 -59.92,59.92l0 0zm-130.89 -160.42c-4.88,-3.28 -11.5,-1.97 -14.78,2.91 -19.39,28.9 -29.65,62.65 -29.65,97.59 0,96.67 78.65,175.31 175.32,175.31 96.67,0 175.32,-78.64 175.32,-175.31 0,-96.68 -78.65,-175.32 -175.32,-175.32 -42.93,0 -84.24,15.67 -116.32,44.14 -4.4,3.9 -4.8,10.64 -0.89,15.03 3.9,4.41 10.63,4.81 15.03,0.9 28.18,-25 64.47,-38.77 102.18,-38.77 84.93,0 154.02,69.09 154.02,154.02 0,84.92 -69.09,154.01 -154.02,154.01 -84.93,0 -154.02,-69.09 -154.02,-154.01 0,-30.7 9,-60.34 26.04,-85.72 3.28,-4.89 1.97,-11.5 -2.91,-14.78l0 0z"/>
 </g>
</svg>
