<?xml version="1.0" encoding="UTF-8"?>
<!DOCTYPE svg PUBLIC "-//W3C//DTD SVG 1.1//EN" "http://www.w3.org/Graphics/SVG/1.1/DTD/svg11.dtd">
<!-- Creator: CorelDRAW 2017 -->
<svg xmlns="http://www.w3.org/2000/svg" xml:space="preserve" width="40mm" height="38mm" version="1.1" style="shape-rendering:geometricPrecision; text-rendering:geometricPrecision; image-rendering:optimizeQuality; fill-rule:evenodd; clip-rule:evenodd"
viewBox="0 0 4000 3800"
 xmlns:xlink="http://www.w3.org/1999/xlink">
 <defs>
  <style type="text/css">
   <![CDATA[
    .fil0 {fill:black}
    .fil1 {fill:#2892DE}
   ]]>
  </style>
 </defs>
 <g id="Слой_x0020_1">
  <metadata id="CorelCorpID_0Corel-Layer"/>
  <g id="_1842503713056">
   <path class="fil0" d="M381.33 1199.18l0 -383.81c0,-70.67 30.31,-134.76 93.6,-166.19 20,-9.93 40.12,-18.7 70.23,-18.7l297.22 0c0,112.17 -13.6,195.4 69.63,279.09 17.78,17.87 42.89,36.56 68.09,46.58 14.3,5.69 24.32,9.98 42,14.17 48.47,11.5 106.25,6.22 147.97,-14.5 12.8,-6.35 26.24,-13.22 37.42,-21.08l31.83 -26.68c20.24,-20.71 36.75,-43.96 48.41,-70.95 26.97,-62.41 20.38,-137.87 20.38,-206.63l458.71 0c0,105.18 -12.04,197.66 68.43,277.94 31.39,31.32 89.96,63.79 135.23,66.04 12.54,0.61 17.44,2.37 28.05,2.56 28.47,0.49 68.5,-8.77 94.43,-20.4 83.34,-37.38 139.59,-119.73 139.59,-211.47l0 -114.67 458.7 0c0,112.31 -11.76,187.13 64.26,272.75l10.48 10.58c73.1,64.65 159.05,79.61 251.59,43 25.64,-10.15 50.92,-28.22 68.61,-46.08 10.92,-11.01 17.43,-17.25 26.32,-29.84 56.36,-79.85 44.47,-155.18 44.47,-250.41l297.22 0c28.77,0 48.84,8.07 68.67,17.93 37.78,18.8 65.88,51.36 82.72,90.46 8.16,18.95 12.44,49.99 12.44,76.5l0 383.81c0,5.39 -1.63,7.02 -7.02,7.02l-3222.65 0c-5.39,0 -7.03,-1.63 -7.03,-7.02zm1504.85 -444.66l0 -367.44c0,-28.58 19.3,-58.68 34.43,-73.22 31.92,-30.64 80.37,-40.36 122.67,-23.03 36.51,14.97 69.91,55.48 69.91,96.25l0 367.44c0,24.9 -12.36,46.72 -27.18,64.09 -71.1,83.4 -199.83,21.07 -199.83,-64.09zm1043.79 102.97c-38.1,0 -60.52,-7.68 -84.85,-32.16 -17.93,-18.04 -34.51,-44.44 -34.51,-73.16l0 -362.75c0,-83.22 116.34,-151.39 196.03,-71.99 17.64,17.57 33.33,47.14 33.33,81.35l0 344.03c0,60.32 -49.77,114.68 -110,114.68zm-1970.57 -114.68l0 -344.03c0,-67.26 48.32,-109.12 110.71,-116.48 52.13,-6.16 118.64,45.42 118.64,107.12l0 362.75c0,13.95 -5.95,30.38 -10.87,40.62 -7.6,15.81 -10.95,19.84 -22.47,31.36 -72.13,72.13 -196.01,20.73 -196.01,-81.34zm-117.02 -355.73l0 124.04 -278.5 0c-72.61,0 -135.51,20.2 -188.61,61.8 -20.45,16.02 -38.65,34.97 -54.15,55.86 -31.04,41.85 -56.8,103.76 -56.8,160.84l0 2335.66c0,54.03 24.04,117.3 53.46,157.17 53.61,72.61 133.46,121.33 229.72,121.33l1626.54 0c17.47,0 30.93,-6.99 40.43,-15.74 30.05,-27.69 27.6,-101.72 -52.12,-101.29 -479.02,2.59 -964.4,0.01 -1444,0.01 -43.69,0 -87.38,0 -131.06,0 -53.54,0 -74.62,-0.89 -111.59,-19.47 -65.25,-32.78 -94.37,-93.47 -94.37,-170.09l0 -1773.98 3236.7 0 0 987.62c0,57.92 86.81,71.67 110.4,21.47 2.85,-6.05 6.61,-14.4 6.61,-23.81l0 -1518.88c0,-40.56 -15.04,-86.18 -28.51,-114.25 -15.52,-32.36 -23.87,-40.09 -43.04,-64.62 -11.28,-14.43 -14.7,-16.77 -27.08,-26.74 -27.48,-22.12 -38.99,-33.82 -78.87,-49.86 -36.2,-14.56 -70.57,-23.03 -122.06,-23.03l-278.5 0c0,-90.25 11.63,-172.13 -42.13,-248.07 -130.08,-183.76 -423.6,-95.23 -423.6,140.42l0 107.65 -458.7 0c0,-106.62 12.72,-197.45 -66.12,-275.58 -11.01,-10.92 -17.25,-17.43 -29.84,-26.32 -163.24,-115.22 -369.77,7.98 -369.77,184.88l0 117.02 -458.71 0c0,-91.44 9.68,-161.41 -38.15,-240.35 -3.93,-6.5 -7,-10.58 -11.72,-16.36 -22.74,-27.84 -45.45,-48.46 -79.57,-65.53 -62.14,-31.09 -138.2,-32.55 -200.86,-3.38 -36.89,17.18 -68.6,43.34 -92.32,76.19 -22.46,31.1 -43.11,83.03 -43.11,125.39z"/>
   <path class="fil1" d="M2347.22 2886.57c0,-100.79 23.9,-194.77 56.94,-266.03 104.61,-225.61 324.66,-372.89 581.97,-372.89 105.6,0 198.29,26.62 285.53,70.21 12.78,6.39 25.69,12.92 37.92,20.59l101.94 75.92c52.68,48.73 95.14,104.83 130.03,167.2l37.01 82.35c18.46,56.42 26.37,77.43 34.36,143.49 12.87,106.32 -5.5,244.74 -52.28,337.71 -2.49,4.94 -3.44,6.1 -5.48,10.9 -15.21,35.66 -45.41,82.3 -68.17,112.05l-55.6 63.75c-160.44,160.43 -396.66,223.77 -620.32,162.77 -14.62,-3.99 -28.75,-9.46 -44.04,-14.46 -16.83,-5.51 -28.92,-11.6 -43.35,-17.5 -14.3,-5.86 -26.45,-12.25 -39.48,-19.03 -36.91,-19.21 -74.2,-45.12 -106.01,-71.86 -6.26,-5.26 -9.12,-7.64 -15.11,-12.97 -32.84,-29.25 -31.7,-29.66 -59.65,-59.71l-40.2 -51.08c-71.16,-98.13 -116.01,-231.37 -116.01,-361.41zm-117.01 -25.75c0,82.63 1.83,124.72 21.98,205.03 10.33,41.18 28.84,96.45 47.42,135.13l31.66 59.62c5.96,9.82 10.59,17.76 16.66,27.8 33.04,54.74 104.04,134.72 151.41,171.55 61.89,48.1 95.45,72.94 167.38,106.45 157.79,73.53 327.05,86.97 496.69,47.42 10.12,-2.35 23.22,-6.22 34.89,-9.58 74.02,-21.31 154.41,-60.7 216.11,-104.51l51.5 -39.77c21.53,-16.65 51.1,-47.63 70.83,-67.26l41.82 -49.45c7.17,-8.96 12.69,-17.34 19.76,-27.05 22.06,-30.32 50.82,-81.39 66.89,-115.65 19.42,-41.36 35.5,-85.88 47.74,-134.82 44.98,-179.99 21.9,-355.14 -57.73,-520.6 -25.73,-53.45 -59.68,-98.8 -95.68,-145.37 -14.79,-19.14 -48.62,-52.37 -66.09,-69.66l-25.2 -21.6c-54.03,-41.75 -101.16,-78.92 -166.84,-106.98 -75.76,-32.36 -124.03,-51.26 -210.34,-63.48 -125.75,-17.8 -242.13,-5.07 -361.52,35.57l-64.85 26.43c-42.93,20.61 -51.16,27.06 -87.38,48.36 -19.37,11.39 -61.88,43.37 -79.62,58.46l-57.54 54.79c-4.13,4.64 -7.21,7.44 -11.62,11.79l-79.73 102.81c-34.77,59.28 -32.2,51.51 -62.51,120.04 -19.46,44.02 -31.7,92.45 -42.59,139.95 -6.94,30.24 -13.5,93.17 -13.5,124.58z"/>
   <path class="fil0" d="M1537.46 2247.65l229.36 0 0 170.85 -229.36 0 0 -170.85zm-117.01 -2.34l0 177.87c0,52.1 35.26,90.97 77.51,107.37 32.74,12.7 210.93,7.31 257.16,7.31 23.92,0 39.39,-2.88 56.49,-9.04 8.55,-3.07 14.5,-6.01 21.75,-11.01 40.28,-27.81 52.82,-65.37 52.82,-115.7l0 -140.42c0,-54.86 -19.72,-93.99 -62.41,-117.8 -10.53,-5.88 -32.31,-13.25 -47.59,-13.25l-248.08 0c-39.81,0 -80.57,32.4 -97.55,68.6 -5.22,11.14 -10.1,30.59 -10.1,46.07z"/>
   <path class="fil0" d="M1537.46 2769.55l229.36 0 0 170.85 -229.36 0 0 -170.85zm-117.01 -4.68l0 177.86c0,62.15 56.47,114.68 109.99,114.68l245.74 0c30.65,0 65.95,-22.01 79.94,-39.41 19.53,-24.31 30.06,-48.37 30.06,-91.65l0 -140.42c0,-62.78 -20.24,-101.99 -70.96,-125.63 -16.41,-7.65 -34.67,-10.11 -57.76,-10.11l-212.97 0c-70.91,0 -124.04,49.97 -124.04,114.68z"/>
   <path class="fil0" d="M844.72 2247.65l229.35 0 0 170.85 -229.35 0 0 -170.85zm-117.02 -16.38l0 203.61c0,11.96 9.02,33.96 13.66,42.51l20.49 26.31c23.59,23.59 50.84,34.16 94.57,34.16 46.62,0 221.48,4.93 255.48,-6.65 28.52,-9.71 55.84,-32.49 67.48,-58.89 6.78,-15.36 11.71,-29.13 11.71,-51.48l0 -177.87c0,-15.64 -4.51,-33.17 -9.74,-44.08 -17.31,-36.16 -55.62,-68.25 -97.91,-68.25l-248.08 0c-55.41,0 -107.66,58.15 -107.66,100.63z"/>
   <path class="fil0" d="M844.72 2769.55l229.35 0 0 170.85 -229.35 0 0 -170.85zm-117.02 -14.04l0 196.58c0,28.05 19.53,58.91 34.44,73.22 16.48,15.83 46.44,32.1 77.9,32.1l241.06 0c29.85,0 56.67,-15.71 75.48,-34.52 20.3,-20.3 34.51,-45.74 34.51,-77.82l0 -177.86c0,-35.16 -13.07,-61.01 -35.66,-83.7 -20.68,-20.75 -47.76,-33.32 -88.37,-33.32l-212.97 0c-52.01,0 -90.59,19.48 -113.13,60.06 -5.87,10.56 -13.26,29.98 -13.26,45.26z"/>
   <path class="fil0" d="M1537.46 1728.1l229.36 0 0 170.84 -229.36 0 0 -170.84zm-117.01 0l0 170.84c0,61.39 48.33,117.02 109.99,117.02l245.74 0c20.86,0 31.66,-5.22 46.06,-12.45 43.46,-21.83 63.94,-63.37 63.94,-118.61 0,-43.27 4.25,-159.52 -6.67,-194.61 -3.91,-12.58 -13.89,-30.28 -21.96,-38.88 -18.8,-20.02 -43.61,-40.33 -81.37,-40.33l-250.41 0c-52.54,0 -105.32,51.79 -105.32,117.02z"/>
   <path class="fil0" d="M2232.55 1728.1l229.35 0 0 170.84 -229.35 0 0 -170.84zm-119.36 14.04l0 142.76c0,38.59 9.75,70.63 28.63,90.73 11.12,11.85 18.28,19.27 33.74,27.11 14.85,7.52 26.09,13.22 47.62,13.22l245.74 0c17.59,0 32.63,-5.01 45.12,-11.05 4.92,-2.37 13.26,-7.47 17.38,-10.7 30.1,-23.55 47.5,-54.96 47.5,-95.27l0 -170.84c0,-65.09 -52.62,-117.02 -105.32,-117.02l-250.42 0c-19.38,0 -33.28,4.99 -46.36,12.15 -46.49,25.47 -63.63,66.03 -63.63,118.91z"/>
   <path class="fil0" d="M844.72 1728.1l229.35 0 0 170.84 -229.35 0 0 -170.84zm-117.02 -16.39l0 203.61c0,12.05 7.72,30.27 12.46,39.04 17.28,31.97 53.86,61.6 92.86,61.6l248.08 0c42.24,0 82.69,-29.09 99.68,-66.48 5.5,-12.08 10.31,-29.41 10.31,-45.86l0 -180.2c0,-57.86 -50.65,-112.34 -107.65,-112.34l-248.08 0c-42.41,0 -76.48,28.18 -94.37,60.1 -5.04,9 -13.29,27.95 -13.29,40.53z"/>
   <path class="fil0" d="M2925.29 1728.1l229.35 0 0 170.84 -229.35 0 0 -170.84zm-117.02 -4.68l0 180.2c0,58.9 51.29,112.34 109.99,112.34l248.08 0c39,0 75.59,-29.63 92.86,-61.6 4.74,-8.77 12.46,-26.99 12.46,-39.04l0 -203.61c0,-12.04 -7.72,-30.26 -12.46,-39.03 -6.64,-12.3 -12.65,-20.04 -22.04,-29.44 -16.13,-16.13 -42,-32.16 -73.16,-32.16l-248.07 0c-57.01,0 -107.66,54.48 -107.66,112.34z"/>
   <path class="fil1" d="M2866.78 3087.84c-11.05,-7.41 -151.4,-150.23 -173.77,-172.61 -16.41,-16.4 -40.09,-47.39 -69.63,-47.39 -51.04,0 -81.31,61.85 -42.76,101.28l225.9 225.79c23.8,23.8 29.05,35.69 64.94,35.69 20,0 32.17,-12.21 42.71,-22.82 57.38,-57.76 483.54,-480.93 490.84,-492.1 15.1,-23.11 12.82,-58 -6.31,-75.51 -17.52,-16.03 -28.55,-15.72 -49.81,-15.72 -25.66,0 -52.34,34.78 -67.29,49.73 -40.74,40.74 -401.54,404.76 -414.82,413.66z"/>
   <path class="fil0" d="M2113.19 2261.69l0 140.42c0,53.03 15.12,96.21 61.57,120.98 96.47,51.42 142.54,-45.17 97.09,-87.72 -9.65,-9.03 -22.8,-15.5 -39.3,-16.87l0 -170.85 234.03 0c27.66,0 53.83,-29.83 53.83,-49.14 0,-21.32 1.73,-33.02 -18.05,-52.17 -8.23,-7.97 -20.61,-15.7 -35.78,-15.7l-243.4 0c-14.55,0 -35.9,6.97 -46.08,12.42 -11.74,6.29 -25.65,17.27 -34.08,26.77 -22.66,25.54 -29.83,57.2 -29.83,91.86z"/>
  </g>
 </g>
</svg>
