<?xml version="1.0" encoding="UTF-8"?>
<!DOCTYPE svg PUBLIC "-//W3C//DTD SVG 1.1//EN" "http://www.w3.org/Graphics/SVG/1.1/DTD/svg11.dtd">
<!-- Creator: CorelDRAW 2017 -->
<svg xmlns="http://www.w3.org/2000/svg" xml:space="preserve" width="8mm" height="8mm" version="1.1" style="shape-rendering:geometricPrecision; text-rendering:geometricPrecision; image-rendering:optimizeQuality; fill-rule:evenodd; clip-rule:evenodd"
viewBox="0 0 800 800"
 xmlns:xlink="http://www.w3.org/1999/xlink">
 <defs>
  <style type="text/css">
   <![CDATA[
    .fil0 {fill:#FEFEFE}
   ]]>
  </style>
 </defs>
 <g id="Слой_x0020_1">
  <metadata id="CorelCorpID_0Corel-Layer"/>
  <path class="fil0" d="M779.35 151.13c-2.04,-2.54 -5.03,-4.15 -8.28,-4.45l-678.06 -61.77c-12.37,-0.78 -16.72,13.09 -14.61,21.68l104.91 349.12c8.15,27 32.58,44.93 60.36,44.93 1.57,0 3.16,-0.06 4.75,-0.17l452.8 -33.14c23.74,-1.73 43.21,-20.12 46.29,-43.73 9.11,-69.79 18.2,-139.57 27.31,-209.36 1.97,-15.03 -21.83,-18.39 -23.9,-2.07l-3.08 23.75 0 0 -3.12 23.86 0 0 -10.33 79.13 0 0 -3.12 24.03 0 0 -7.52 57.56c-1.6,12.39 -11.82,22.04 -24.27,22.95l-4.17 0.3 0 0 -402.1 29.42 0 0 -46.54 3.4c-18.47,1.35 -35.07,-10.07 -40.42,-27.78l-2.4 -7.93 -19.85 -65.75 -36.12 -119.59 -5.33 -17.68 -7.33 -24.24 0 0 -31.23 -103.41 564.17 51.21 0 0 99.82 9.11c7.25,0.76 12.19,-2.2 13.9,-10.34 0.41,-3.24 -0.5,-6.49 -2.53,-9.04zm-723.96 -93.78l37.39 0c6.74,0 12.26,-5.53 12.26,-12.27l0 0c0,-6.75 -5.76,-12.27 -12.26,-12.27l-37.39 0c-3.76,-5.11 -7.55,-8.43 -16.67,-8.43 -9.13,0 -20.7,9.27 -20.7,20.7 0,11.43 11.57,20.69 20.7,20.69 9.12,0 12.91,-3.31 16.67,-8.42zm230.43 329.2l56.06 0c6.75,0 12.27,5.53 12.27,12.27l0 0c0,6.74 -5.59,12.26 -12.27,12.26l-56.06 0c-6.68,0 -12.27,-5.52 -12.27,-12.26l0 0c0,-6.74 5.52,-12.27 12.27,-12.27zm-58.85 -71.68l25.84 0c6.74,0 12.26,5.52 12.26,12.27l0 0c0,6.75 -5.59,12.27 -12.26,12.27l-25.84 0c-6.68,0 -12.27,-5.52 -12.27,-12.27l0 0c0,-6.75 5.53,-12.27 12.27,-12.27zm180.25 55.91l0 56.07c0,6.68 -5.53,12.27 -12.27,12.27l0 0c-6.75,0 -12.27,-5.52 -12.27,-12.27l0 -56.07c0,-6.75 5.52,-12.26 12.27,-12.26l0 0c6.74,0 12.27,5.64 12.27,12.26zm-79.77 -71.67l0 56.07c0,6.68 -5.52,12.27 -12.26,12.27l0 0c-6.76,0 -12.27,-5.52 -12.27,-12.27l0 -56.07c0,-6.74 5.51,-12.26 12.27,-12.26l0 0c6.74,0 12.26,5.65 12.26,12.26zm-75.3 -71.65l0 56.07c0,6.69 -5.52,12.26 -12.26,12.26l0 0c-6.74,0 -12.27,-5.5 -12.27,-12.26l0 -56.07c0,-6.75 5.53,-12.26 12.27,-12.26l0 0c6.74,0 12.26,5.64 12.26,12.26zm404.76 71.65l0 56.07c0,6.68 -5.53,12.27 -12.27,12.27l0 0c-6.75,0 -12.27,-5.52 -12.27,-12.27l0 -56.07c0,-6.74 5.52,-12.26 12.27,-12.26l0 0c6.74,0 12.27,5.65 12.27,12.26zm-83.23 -71.65l0 56.07c0,6.69 -5.53,12.26 -12.27,12.26l0 0c-6.75,0 -12.27,-5.5 -12.27,-12.26l0 -56.07c0,-6.75 5.52,-12.26 12.27,-12.26l0 0c6.74,0 12.27,5.64 12.27,12.26zm-85.04 -50.42l0 35.03c0,6.68 -5.51,12.27 -12.26,12.27l0 0c-6.74,0 -12.27,-5.52 -12.27,-12.27l0 -35.03c0,-6.75 5.53,-12.27 12.27,-12.27l0 0c6.75,0 12.26,5.65 12.26,12.27zm127.96 66.19l36.95 0c6.75,0 12.27,5.52 12.27,12.27l0 0c0,6.74 -5.61,12.27 -12.27,12.27l-36.95 0c-6.66,0 -12.27,-5.53 -12.27,-12.27l0 0c0,-6.75 5.52,-12.27 12.27,-12.27zm-42.92 127.55l0 56.07c0,6.68 -5.53,12.27 -12.27,12.27l0 0c-6.75,0 -12.27,-5.52 -12.27,-12.27l0 -56.07c0,-6.75 5.52,-12.26 12.27,-12.26l0 0c6.74,0 12.27,5.64 12.27,12.26zm-85.04 -71.67l0 56.07c0,6.68 -5.51,12.27 -12.26,12.27l0 0c-6.74,0 -12.27,-5.52 -12.27,-12.27l0 -56.07c0,-6.74 5.53,-12.26 12.27,-12.26l0 0c6.75,0 12.26,5.65 12.26,12.26zm-81.42 -71.65l0 56.07c0,6.69 -5.53,12.26 -12.27,12.26l0 0c-6.75,0 -12.27,-5.5 -12.27,-12.26l0 -56.07c0,-6.75 5.52,-12.26 12.27,-12.26l0 0c6.74,0 12.27,5.64 12.27,12.26zm-79.77 -68.39l0 56.07c0,6.68 -5.52,12.27 -12.26,12.27l0 0c-6.76,0 -12.27,-5.52 -12.27,-12.27l0 -56.07c0,-6.74 5.51,-12.26 12.27,-12.26l0 0c6.74,0 12.26,5.65 12.26,12.26zm289.15 227.48l75.17 0c6.75,0 12.27,5.53 12.27,12.27l0 0c0,6.74 -5.68,12.26 -12.27,12.26l-75.17 0c-6.6,0 -12.27,-5.52 -12.27,-12.26l0 0c0,-6.74 5.52,-12.27 12.27,-12.27zm-168.26 0l56.07 0c6.75,0 12.26,5.53 12.26,12.27l0 0c0,6.74 -5.58,12.26 -12.26,12.26l-56.07 0c-6.68,0 -12.26,-5.52 -12.26,-12.26l0 0c0,-6.74 5.51,-12.27 12.26,-12.27zm85.03 -71.68l56.07 0c6.74,0 12.26,5.52 12.26,12.27l0 0c0,6.75 -5.59,12.27 -12.26,12.27l-56.07 0c-6.67,0 -12.27,-5.52 -12.27,-12.27l0 0c0,-6.75 5.53,-12.27 12.27,-12.27zm-166.45 0l56.07 0c6.75,0 12.25,5.52 12.25,12.27l0 0c0,6.75 -5.57,12.27 -12.25,12.27l-56.07 0c-6.67,0 -12.26,-5.52 -12.26,-12.27l0 0c0,-6.75 5.52,-12.27 12.26,-12.27zm81.42 -71.64l56.07 0c6.75,0 12.26,5.52 12.26,12.27l0 0c0,6.74 -5.58,12.27 -12.26,12.27l-56.07 0c-6.68,0 -12.26,-5.53 -12.26,-12.27l0 0c0,-6.75 5.51,-12.27 12.26,-12.27zm-161.19 0l56.06 0c6.75,0 12.27,5.52 12.27,12.27l0 0c0,6.74 -5.59,12.27 -12.27,12.27l-56.06 0c-6.68,0 -12.27,-5.53 -12.27,-12.27l0 0c0,-6.75 5.52,-12.27 12.27,-12.27zm79.77 -68.39l56.07 0c6.75,0 12.25,5.51 12.25,12.26l0 0c0,6.75 -5.57,12.26 -12.25,12.26l-56.07 0c-6.67,0 -12.26,-5.51 -12.26,-12.26l0 0c0,-6.75 5.52,-12.26 12.26,-12.26zm-183.73 0l84.73 0c6.75,0 12.27,5.51 12.27,12.26l0 0c0,6.75 -5.62,12.26 -12.27,12.26l-84.73 0c-6.65,0 -12.27,-5.51 -12.27,-12.26l0 0c0,-6.75 5.53,-12.26 12.27,-12.26zm474 501.45l0 -28.7 26.43 0 0 0c6.61,0 11.98,-5.37 11.98,-11.98 0,-6.62 -5.37,-11.99 -11.98,-11.99l-498.91 0c-4.67,0 -8.82,-2.23 -11.38,-6.12 -2.58,-3.89 -2.99,-8.58 -1.15,-12.87l33.83 -78.96c2.61,-6.07 -0.2,-13.12 -6.29,-15.72 -6.09,-2.61 -13.12,0.21 -15.73,6.28l-33.84 78.96c-4.98,11.65 -3.8,24.91 3.16,35.5 7,10.57 18.71,16.9 31.4,16.9l13.2 0 0 28.7c-22.03,5.39 -38.41,25.28 -38.41,48.94 0,27.78 22.6,50.39 50.39,50.39 27.78,0 50.38,-22.61 50.38,-50.39 0,-23.66 -16.39,-43.55 -38.4,-48.94l0 -28.7 411.35 0 0 28.7c-22.01,5.39 -38.41,25.28 -38.41,48.94 0,27.78 22.61,50.39 50.4,50.39 27.79,0 50.39,-22.61 50.39,-50.39 0,-23.66 -16.38,-43.55 -38.41,-48.94zm-420.88 48.94c0,14.58 -11.84,26.43 -26.42,26.43 -14.58,0 -26.43,-11.85 -26.43,-26.43 0,-14.57 11.85,-26.43 26.43,-26.43 14.58,0 26.42,11.86 26.42,26.43zm408.9 26.43c-14.58,0 -26.43,-11.85 -26.43,-26.43 0,-14.57 11.85,-26.43 26.43,-26.43 14.57,0 26.43,11.86 26.43,26.43 0,14.58 -11.86,26.43 -26.43,26.43z"/>
 </g>
</svg>
