<?xml version="1.0" encoding="UTF-8"?>
<!DOCTYPE svg PUBLIC "-//W3C//DTD SVG 1.1//EN" "http://www.w3.org/Graphics/SVG/1.1/DTD/svg11.dtd">
<!-- Creator: CorelDRAW 2017 -->
<svg xmlns="http://www.w3.org/2000/svg" xml:space="preserve" width="8mm" height="8mm" version="1.1" style="shape-rendering:geometricPrecision; text-rendering:geometricPrecision; image-rendering:optimizeQuality; fill-rule:evenodd; clip-rule:evenodd"
viewBox="0 0 800 800"
 xmlns:xlink="http://www.w3.org/1999/xlink">
 <defs>
  <style type="text/css">
   <![CDATA[
    .fil0 {fill:#FEFEFE}
   ]]>
  </style>
 </defs>
 <g id="Слой_x0020_1">
  <metadata id="CorelCorpID_0Corel-Layer"/>
  <path class="fil0" d="M531.78 689.8l0 74.14c0,6.17 -4.46,11.3 -10.32,12.35 -0.96,0.24 -1.96,0.36 -2.99,0.36l-431.12 0c-6.93,0 -12.56,-5.62 -12.56,-12.55 0,-6.93 5.63,-12.55 12.56,-12.55l419.32 0 0 -61.75c0,-57.72 -46.71,-104.44 -104.44,-104.44 -27.31,0 -52.1,-13.91 -66.3,-37.23 -3.6,-5.92 -1.73,-13.63 4.19,-17.25 5.92,-3.6 13.64,-1.73 17.25,4.2 9.6,15.76 26.38,25.18 44.86,25.18 71.6,-0.01 129.54,57.94 129.54,129.54l0.01 0zm104 -360.06c24.04,0 46.67,6.05 66.48,16.69 23.26,11.8 8.39,32.31 -12.47,20.25 -16.12,-8.48 -34.53,-13.18 -54.01,-13.18 -32.3,0 -61.56,13.11 -82.72,34.27 -21.17,21.16 -34.27,50.43 -34.27,82.72 0,32.34 13.08,61.59 34.22,82.72 21.18,21.19 50.43,34.27 82.77,34.27 32.29,0 61.56,-13.1 82.73,-34.27 21.15,-21.16 34.26,-50.42 34.26,-82.72 0,-26.46 -8.78,-50.88 -23.57,-70.47 -14.22,-18.89 4.84,-32.45 20.48,-12.18 16.89,23.23 26.85,51.8 26.85,82.65 0,38.87 -15.77,74.07 -41.22,99.52 -25.46,25.47 -60.67,41.23 -99.53,41.23 -38.81,0 -74.01,-15.77 -99.48,-41.23 -25.5,-25.51 -41.27,-60.71 -41.27,-99.52 0,-38.86 15.76,-74.07 41.23,-99.53 25.45,-25.45 60.65,-41.22 99.52,-41.22zm0 60.28l0.01 0c7.47,0 13.58,6.11 13.58,13.58l0 53.31 53.3 0c7.47,0 13.58,6.11 13.58,13.58l0 0.01c0,7.47 -6.11,13.58 -13.58,13.58l-53.3 0 0 53.31c0,7.47 -6.11,13.58 -13.58,13.58l-0.01 0c-7.47,0 -13.58,-6.11 -13.58,-13.58l0 -53.31 -53.31 0c-7.48,0 -13.59,-6.11 -13.59,-13.58l0 -0.01c0,-7.47 6.11,-13.58 13.59,-13.58l53.31 0 0 -53.31c0,-7.47 6.11,-13.58 13.58,-13.58zm-323.02 173.97c1.47,6.77 -2.82,13.47 -9.59,14.94 -33.04,7.19 -66.63,-0.01 -93.37,-18.27 -26.48,28.38 -61.47,24.7 -56.78,24.7 -57.73,0 -104.45,46.71 -104.45,104.44l0 74.14c0,6.93 -5.62,12.55 -12.55,12.55 -6.93,0 -12.55,-5.62 -12.55,-12.55l0 -74.14c0,-71.59 57.93,-129.54 129.55,-129.54 28.96,0 52.43,-23.33 52.43,-52.31l0 -3.31c-54.77,-26.19 -93.23,-81.23 -95.57,-145.33 -22.55,-5.43 -39.34,-25.61 -39.34,-49.61l0 -65.07c-0.69,-31.84 4.04,-111.61 62.19,-167.67 71.82,-69.23 186.99,-64.83 271.67,-24.07 8.25,3.98 9.51,15.13 2.65,20.9 42.91,10.47 79.9,36.84 103.67,74.59 1.22,1.94 3.47,4.99 2.88,9.86 -0.36,3.03 -1.27,5.59 -3.6,7.97 -15.3,15.51 -23.72,36.06 -23.72,57.88l0 85.61c0,6.92 -5.62,12.55 -12.55,12.55 -6.93,0 -12.55,-5.63 -12.55,-12.55l0 -85.61c0,-25.16 8.59,-49.04 24.38,-68.22 -24.06,-34.42 -61.61,-56.56 -104.07,-61.1l-22.06 -2.37c-12.89,-1.37 -15.42,-19.15 -3.44,-24.08l10.04 -4.14c-130.67,-45.54 -270.39,5.07 -270.39,180.31l0 65.21c0,9.96 5.73,18.61 14.11,22.96l0 -81.37c0,-48.44 39.42,-87.86 87.86,-87.86l160.02 0c48.44,0 87.86,39.42 87.86,87.86l0 102.76c0,109.15 -106.66,192.06 -215.2,160.11 -0.71,8.95 -2.94,17.59 -6.57,25.62 21.12,14.5 47.78,20.35 74.1,14.62 6.77,-1.48 13.46,2.82 14.94,9.59l0 0zm-35.14 -68.13c78.73,0 142.77,-64.04 142.77,-142.76l0 -101.81c0,-34.6 -28.16,-62.75 -62.76,-62.75l-160.02 0c-34.6,0 -62.76,28.15 -62.76,62.75l0 101.81c0,78.72 64.05,142.76 142.77,142.76l0 0zm127.08 199.58l-37.65 0c-6.93,0 -12.56,5.62 -12.56,12.55 0,6.93 5.63,12.56 12.56,12.56l37.65 0c6.92,0 12.55,-5.63 12.55,-12.56 0,-6.93 -5.63,-12.55 -12.55,-12.55z"/>
 </g>
</svg>
