<?xml version="1.0" encoding="UTF-8"?>
<!DOCTYPE svg PUBLIC "-//W3C//DTD SVG 1.1//EN" "http://www.w3.org/Graphics/SVG/1.1/DTD/svg11.dtd">
<!-- Creator: CorelDRAW 2017 -->
<svg xmlns="http://www.w3.org/2000/svg" xml:space="preserve" width="34mm" height="34mm" version="1.1" style="shape-rendering:geometricPrecision; text-rendering:geometricPrecision; image-rendering:optimizeQuality; fill-rule:evenodd; clip-rule:evenodd"
viewBox="0 0 3400 3400"
 xmlns:xlink="http://www.w3.org/1999/xlink">
 <defs>
  <style type="text/css">
   <![CDATA[
    .fil0 {fill:black}
    .fil1 {fill:#2892DE}
   ]]>
  </style>
 </defs>
 <g id="Слой_x0020_1">
  <metadata id="CorelCorpID_0Corel-Layer"/>
  <g id="_1842498359472">
   <path class="fil0" d="M3150.44 140.1l-213.93 0c-27.02,0 -48.92,21.9 -48.92,48.92 0,27.03 21.9,48.93 48.92,48.93l213.93 0c12.46,0 22.6,10.13 22.6,22.59l0 1313.54c0,12.46 -10.14,22.59 -22.6,22.59l-2001.87 0.01 0 -97.85 1321.29 0c27.03,0 48.93,-21.89 48.93,-48.92 0,-27.03 -21.9,-48.92 -48.93,-48.92l-1321.29 -0.01 0 -207.54c0,-131.16 -106.72,-237.88 -237.89,-237.88 -131.17,0 -237.89,106.71 -237.89,237.88l0 207.54 -113.18 0c-17.59,-66.72 -70.24,-119.38 -136.97,-136.96l0 -347.62c0,-27.03 -21.9,-48.92 -48.92,-48.92 -27.03,0 -48.93,21.89 -48.93,48.92l0 390.24c0,27.02 21.9,48.92 48.93,48.92 52.02,0 94.35,42.32 94.35,94.35 0,27.03 21.9,48.92 48.92,48.92l155.81 0 0 97.85 -423.26 0c-12.46,0 -22.6,-10.14 -22.6,-22.6l0 -1313.54c0,-12.46 10.14,-22.6 22.6,-22.6l675.93 0 0 97.85 -408.48 0c-27.03,0 -48.93,21.9 -48.93,48.93 0,52.02 -42.32,94.34 -94.34,94.34 -27.03,0 -48.93,21.9 -48.93,48.93l0 179.9c0,27.02 21.9,48.92 48.93,48.92 27.02,0 48.92,-21.9 48.92,-48.92l0 -137.28c66.73,-17.58 119.38,-70.24 136.96,-136.96l365.87 0 0 18.86c0,117.37 95.49,212.87 212.87,212.87 54.45,0 104.17,-20.57 141.85,-54.32 36.4,65.3 106.14,109.58 186.05,109.58 79.91,0 149.65,-44.28 186.05,-109.58 37.68,33.74 87.4,54.32 141.85,54.32 83.38,0 155.68,-48.22 190.59,-118.21 37.1,31.4 85.01,50.39 137.3,50.39 100.53,0 184.95,-70.06 207.12,-163.91l511.24 0c17.58,66.73 70.23,119.39 136.96,136.96l0 693.42c-66.73,17.58 -119.38,70.23 -136.96,136.96l-162.02 0c-27.03,0 -48.93,21.9 -48.93,48.93 0,27.02 21.9,48.92 48.93,48.92l204.63 0c27.03,0 48.93,-21.9 48.93,-48.92 0,-52.03 42.32,-94.35 94.35,-94.35 27.02,0 48.92,-21.9 48.92,-48.93l0 -778.65c0,-27.02 -21.9,-48.92 -48.92,-48.92 -52.03,0 -94.35,-42.32 -94.35,-94.35 0,-27.03 -21.9,-48.92 -48.93,-48.92l-548.09 0 0 -97.85 393.11 0c27.03,0 48.93,-21.9 48.93,-48.93 0,-27.02 -21.9,-48.92 -48.93,-48.92l-402.21 0c-21.97,-62.22 -81.32,-106.93 -150.96,-106.93l-105.66 0c-43.13,0 -82.3,17.19 -111.11,45.03 -28.81,-27.84 -67.98,-45.03 -111.12,-45.03l-105.65 0c-43.14,0 -82.32,17.19 -111.12,45.03 -28.82,-27.84 -67.99,-45.03 -111.13,-45.03l-105.65 0c-43.13,0 -82.31,17.19 -111.12,45.03 -28.81,-27.84 -67.99,-45.03 -111.12,-45.03l-105.66 0c-69.63,0 -128.98,44.72 -150.94,106.93l-685.03 0c-66.42,0 -120.45,54.03 -120.45,120.44l0 1313.54c0,66.42 54.03,120.45 120.45,120.45l423.26 0 0 362.88c0,104.38 40.64,202.5 114.44,276.3l209.49 209.49 0 774.71c0,27.03 21.9,48.93 48.93,48.93 27.02,0 48.92,-21.9 48.92,-48.93l0 -794.98c0,-12.97 -5.15,-25.41 -14.32,-34.6l-223.83 -223.83c-55.32,-55.31 -85.78,-128.86 -85.78,-207.1l0 -863.97c0,-77.21 62.82,-140.03 140.03,-140.03 77.22,0 140.05,62.82 140.05,140.03l0 452.17c0,27.02 21.9,48.92 48.92,48.92 219.95,0 398.88,178.94 398.88,398.88l0 31.35c0,27.02 21.9,48.92 48.93,48.92 27.02,0 48.92,-21.9 48.92,-48.92l0 -31.35c0,-163.26 -79.22,-308.29 -201.18,-398.89l1025.74 0.01 0 25.28c0,86.86 -26.75,170.11 -77.35,240.71l-140.83 196.48c-5.96,8.31 -9.16,18.28 -9.16,28.5l0 1132.42c0,27.02 21.9,48.92 48.92,48.92 27.03,0 48.93,-21.9 48.93,-48.92l0 -1116.68 131.67 -183.71c62.59,-87.32 95.67,-190.27 95.67,-297.71l0 -25.28 631.66 0c66.42,0 120.45,-54.04 120.45,-120.45l0 -1313.55c-0.01,-66.4 -54.04,-120.44 -120.46,-120.44l0 0.01zm-1081.25 -9.08l105.66 0c34.29,0 62.19,27.9 62.19,62.2l0 191.46c0,63.42 -51.6,115.02 -115.02,115.02 -63.43,0 -115.02,-51.6 -115.02,-115.02l0 -191.46c0.01,-34.3 27.9,-62.2 62.19,-62.2zm-327.88 0l105.65 0c34.3,0 62.2,27.9 62.2,62.2l0 259.28c0,63.43 -51.6,115.02 -115.03,115.02 -63.43,0 -115.03,-51.59 -115.03,-115.02l0 -259.28c0,-34.3 27.91,-62.2 62.21,-62.2zm-327.9 0l105.65 0c34.29,0 62.2,27.9 62.2,62.2l0 314.55c0,63.43 -51.6,115.02 -115.02,115.02l-0.01 0c-63.43,0 -115.02,-51.59 -115.02,-115.02l0 -314.55c0.01,-34.3 27.91,-62.2 62.2,-62.2l0 0zm-390.09 62.2c0,-34.3 27.9,-62.2 62.19,-62.2l105.66 0c34.29,0 62.19,27.9 62.19,62.2l0 259.28c0,63.43 -51.6,115.02 -115.03,115.02 -63.42,0 -115.02,-51.59 -115.02,-115.02l0 -259.28 0.01 0z"/>
   <path class="fil1" d="M1330.9 779.65c-26.64,-4.11 -51.68,14.22 -55.79,40.92 -3.33,21.69 -5.03,43.87 -5.03,65.9 0,237.27 193.04,430.31 430.31,430.31 237.27,0 430.31,-193.04 430.31,-430.31 0,-40.24 -5.67,-80.32 -16.85,-119.17 -7.47,-25.98 -34.64,-40.99 -60.54,-33.49 -25.96,7.48 -40.96,34.58 -33.48,60.55 8.64,30.04 13.02,61.02 13.02,92.1 0,183.32 -149.13,332.46 -332.46,332.46 -183.32,0 -332.46,-149.14 -332.46,-332.46 0,-17.07 1.3,-34.23 3.89,-51.02 4.12,-26.7 -14.2,-51.68 -40.92,-55.79z"/>
  </g>
 </g>
</svg>
