<?xml version="1.0" encoding="UTF-8"?>
<!DOCTYPE svg PUBLIC "-//W3C//DTD SVG 1.1//EN" "http://www.w3.org/Graphics/SVG/1.1/DTD/svg11.dtd">
<!-- Creator: CorelDRAW 2017 -->
<svg xmlns="http://www.w3.org/2000/svg" xml:space="preserve" width="27mm" height="37mm" version="1.1" style="shape-rendering:geometricPrecision; text-rendering:geometricPrecision; image-rendering:optimizeQuality; fill-rule:evenodd; clip-rule:evenodd"
viewBox="0 0 2700 3700"
 xmlns:xlink="http://www.w3.org/1999/xlink"
 enable-background="new 0 0 512 512">
 <defs>
  <style type="text/css">
   <![CDATA[
    .fil1 {fill:black}
    .fil0 {fill:#2892DE}
   ]]>
  </style>
 </defs>
 <g id="Слой_x0020_1">
  <metadata id="CorelCorpID_0Corel-Layer"/>
  <g id="_1807932399712">
   <path class="fil0" d="M653.43 1860.72l1393.14 0c88.63,0 160.75,-72.11 160.75,-160.75 0,-88.64 -72.12,-160.74 -160.75,-160.74l-1393.14 -0.01c-88.63,0 -160.74,72.11 -160.74,160.75 0,88.64 72.11,160.75 160.74,160.75l0 0zm0 -214.33l1393.14 0c29.55,0 53.58,24.03 53.58,53.58 0,29.55 -24.03,53.59 -53.58,53.59l-1393.14 -0.01c-29.55,0 -53.58,-24.03 -53.58,-53.58 0,-29.55 24.03,-53.58 53.58,-53.58l0 0z"/>
   <path class="fil0" d="M653.43 2289.38l1393.14 0c88.63,0 160.75,-72.11 160.75,-160.75 0,-88.64 -72.12,-160.75 -160.75,-160.75l-1393.14 0c-88.63,0 -160.74,72.11 -160.74,160.75 0,88.64 72.11,160.74 160.74,160.74l0 0.01zm0 -214.33l1393.14 0c29.55,0 53.58,24.03 53.58,53.58 0,29.55 -24.03,53.58 -53.58,53.58l-1393.14 0c-29.55,0 -53.58,-24.03 -53.58,-53.58 0,-29.55 24.03,-53.59 53.58,-53.59l0 0.01z"/>
   <path class="fil0" d="M653.43 2718.03l1393.14 0c88.63,0 160.75,-72.1 160.75,-160.74 0,-88.64 -72.12,-160.75 -160.75,-160.75l-1393.14 0c-88.63,0 -160.74,72.11 -160.74,160.75 0,88.63 72.11,160.74 160.74,160.74l0 0zm0 -214.32l1393.14 0c29.55,0 53.58,24.03 53.58,53.58 0,29.55 -24.03,53.58 -53.58,53.58l-1393.14 0c-29.55,0 -53.58,-24.04 -53.58,-53.58 0,-29.55 24.03,-53.59 53.58,-53.59l0 0.01z"/>
   <path class="fil0" d="M653.43 3146.69l234.76 0c29.6,0 53.58,-23.99 53.58,-53.58 0,-29.59 -23.98,-53.58 -53.58,-53.58l-234.76 0c-29.55,0 -53.58,-24.04 -53.58,-53.59 0,-29.55 24.03,-53.58 53.58,-53.58l793.02 0c29.55,0 53.58,24.04 53.58,53.59 0,29.54 -24.03,53.58 -53.58,53.58l-320.85 0c-29.6,0 -53.59,23.99 -53.59,53.58 0,29.59 23.99,53.58 53.59,53.58l320.85 0c88.63,0 160.75,-72.1 160.75,-160.74 0,-88.64 -72.12,-160.75 -160.75,-160.75l-793.02 0c-88.63,0 -160.74,72.1 -160.74,160.74 0,88.64 72.11,160.75 160.74,160.75l0 0z"/>
   <path class="fil1" d="M2635.97 3166.47c-29.6,0 -53.58,23.99 -53.58,53.59l0 262.41c0,49.25 -40.06,89.31 -89.3,89.31l-2286.18 0c-49.24,0 -89.3,-40.06 -89.3,-89.31l0 -2777.2c0,-29.6 -23.98,-53.59 -53.58,-53.59 -29.6,0 -53.58,23.99 -53.58,53.59l0 2777.2c0,108.34 88.14,196.47 196.46,196.47l2286.18 0c108.33,0 196.46,-88.13 196.46,-196.47l0 -262.41c0,-29.6 -23.98,-53.59 -53.58,-53.59l0 0z"/>
   <path class="fil1" d="M2673.87 1036.96l-1000.21 -1000.2c-10.05,-10.06 -23.68,-15.7 -37.89,-15.7l-1428.86 0c-108.32,0 -196.46,88.13 -196.46,196.47l0 256.19c0,29.59 23.98,53.58 53.58,53.58 29.6,0 53.58,-23.99 53.58,-53.58l0 -256.19c0,-49.25 40.06,-89.3 89.31,-89.3l1375.27 0 0 803.73c0,108.33 88.14,196.47 196.47,196.47l803.73 0 0 1863.01c0,29.59 23.98,53.58 53.58,53.58 29.6,0 53.59,-23.99 53.59,-53.58l0 -1916.59c0,-14.22 -5.65,-27.85 -15.69,-37.89l0 0zm-984.52 -105l0 -727.96 817.27 817.26 -727.96 0c-49.25,0 -89.31,-40.06 -89.31,-89.3z"/>
  </g>
 </g>
</svg>
