<?xml version="1.0" encoding="UTF-8"?>
<!DOCTYPE svg PUBLIC "-//W3C//DTD SVG 1.1//EN" "http://www.w3.org/Graphics/SVG/1.1/DTD/svg11.dtd">
<!-- Creator: CorelDRAW 2017 -->
<svg xmlns="http://www.w3.org/2000/svg" xml:space="preserve" width="40mm" height="38mm" version="1.1" style="shape-rendering:geometricPrecision; text-rendering:geometricPrecision; image-rendering:optimizeQuality; fill-rule:evenodd; clip-rule:evenodd"
viewBox="0 0 4000 3800"
 xmlns:xlink="http://www.w3.org/1999/xlink">
 <defs>
  <style type="text/css">
   <![CDATA[
    .fil0 {fill:black}
    .fil1 {fill:#2892DE}
   ]]>
  </style>
 </defs>
 <g id="Слой_x0020_1">
  <metadata id="CorelCorpID_0Corel-Layer"/>
  <g id="_1842407875440">
   <path class="fil0" d="M3610.1 1208.34l-95.71 0c-32.29,0 -58.45,26.18 -58.45,58.46 0,32.28 26.16,58.45 58.45,58.45l95.71 0.01c145.47,0 263.83,118.34 263.83,263.82l0 1077.1c0,32.28 26.16,58.45 58.45,58.45 32.29,0 58.46,-26.17 58.46,-58.45l0 -1077.1c0,-209.94 -170.8,-380.74 -380.74,-380.74l0 0z"/>
   <path class="fil0" d="M3932.38 2856.85c-32.29,0 -58.45,26.17 -58.45,58.45l0 134.48c0,145.47 -118.36,263.82 -263.83,263.82l-164.02 0c-17.63,0 -34.32,7.95 -45.42,21.65l-170.93 210.93 0 -174.13c0,-32.28 -26.17,-58.45 -58.46,-58.45l-1776.66 0c-145.47,0 -263.82,-118.35 -263.82,-263.82l0 -1460.71c0,-145.47 118.35,-263.82 263.82,-263.82l435.54 0.01c32.29,0 58.45,-26.18 58.45,-58.46 0,-32.28 -26.16,-58.46 -58.45,-58.46l-435.54 0c-209.93,0 -380.73,170.8 -380.73,380.73l0 852.57 -169.59 0.01c-17.02,0 -33.2,7.42 -44.3,20.32l-188.42 218.91 0.8 -180.52c0.07,-15.55 -6.05,-30.48 -17.03,-41.5 -10.97,-11.03 -25.88,-17.21 -41.43,-17.21l-164.02 0c-145.47,0 -263.83,-118.35 -263.83,-263.82l0 -1460.7c0,-145.47 118.36,-263.82 263.83,-263.82l68.27 0.01c32.29,0 58.46,-26.18 58.46,-58.46 0,-32.28 -26.17,-58.46 -58.46,-58.46l-68.27 0c-209.94,0 -380.74,170.8 -380.74,380.73l0 1460.7c0,209.93 170.8,380.73 380.74,380.73l105.31 0 -1.25 280.41c-0.11,24.49 15.06,46.44 38,55.02 6.67,2.49 13.59,3.7 20.44,3.7 16.71,0 33,-7.16 44.33,-20.33l274.39 -318.79 142.77 0 0 491.21c0,209.94 170.8,380.73 380.73,380.73l1718.2 0 0 280.66c0,24.77 15.6,46.83 38.94,55.1 6.39,2.27 12.98,3.36 19.51,3.36 17.3,0 34.11,-7.69 45.43,-21.66l257.26 -317.46 136.15 0c209.94,0 380.74,-170.8 380.74,-380.73l0 -134.47c0,-32.29 -26.17,-58.46 -58.46,-58.46l0 0z"/>
   <path class="fil0" d="M707.28 453.32l1324.29 0c32.29,0 58.45,-26.18 58.45,-58.46 0,-32.28 -26.16,-58.46 -58.45,-58.46l-1324.29 0c-32.29,0 -58.46,26.17 -58.46,58.46 0,32.28 26.18,58.45 58.46,58.45l0 0.01z"/>
   <path class="fil1" d="M2005.52 974.61l0 546.45c0,270.9 220.4,491.3 491.3,491.3l350.9 0c270.91,0 491.31,-220.39 491.31,-491.3l0 -546.45c0,-91.61 -74.54,-166.15 -166.15,-166.15l-25.72 0 0 -81.32c0,-32.28 -26.16,-58.45 -58.45,-58.45 -32.29,0 -58.46,26.17 -58.46,58.45l0 81.32 -132.51 0 0 -303.19c0,-124.32 -101.15,-225.48 -225.47,-225.48 -124.33,0 -225.48,101.16 -225.48,225.48l0 303.19 -132.5 0 0 -303.19c0,-197.39 160.59,-357.98 357.98,-357.98 188.12,0 344.98,146.93 357.11,334.51 2.09,32.22 29.85,56.67 62.11,54.55 32.22,-2.08 56.65,-29.89 54.56,-62.1 -16.09,-248.9 -224.21,-443.87 -473.78,-443.87 -261.86,0 -474.9,213.04 -474.9,474.89l0 303.19 -25.71 0c-91.61,0 -166.14,74.54 -166.14,166.15zm1216.59 0l0 546.45c0,206.43 -167.95,374.39 -374.39,374.39l-350.9 0c-206.44,0 -374.39,-167.95 -374.39,-374.39l0 -546.45c0,-27.15 22.09,-49.24 49.23,-49.24l1001.22 0c27.14,0 49.23,22.09 49.23,49.24l0 0zm-658.4 -469.34c0,-59.86 48.7,-108.56 108.56,-108.56 59.86,0 108.56,48.7 108.56,108.56l0 303.19 -217.12 0 0 -303.19z"/>
   <path class="fil1" d="M2456.52 1535.2c-11.49,43.66 -2.27,89.19 25.29,124.94 27.56,35.75 69.26,56.26 114.39,56.26l152.14 0c45.13,0 86.83,-20.5 114.39,-56.25 27.56,-35.74 36.78,-81.28 25.29,-124.94l-28.5 -108.28c40.76,-47.75 61.52,-108.45 58.52,-171.48 -5.85,-123.38 -106.97,-226.01 -230.2,-233.65 -68.71,-4.29 -134.06,19.28 -184.04,66.26 -49.3,46.33 -77.57,111.69 -77.57,179.31 0,58.59 20.85,115.06 58.8,159.55l-28.51 108.28zm127.34 -361.96c24.19,-22.74 55.32,-35.01 88.39,-35.01 2.77,0 5.56,0.08 8.35,0.26 64.58,4.01 117.58,57.82 120.66,122.51 1.6,33.95 -9.87,66.58 -32.3,91.9 -24.05,27.11 -32.93,64.14 -23.75,99.07l29.73 112.99c3,11.39 -1.73,19.81 -4.82,23.81 -3.09,4.01 -10.02,10.72 -21.79,10.72l-152.14 0c-11.78,0 -18.71,-6.72 -21.8,-10.72 -3.09,-4.01 -7.82,-12.41 -4.82,-23.8l29.73 -112.99c9.19,-34.89 0.29,-71.95 -23.78,-99.11 -20.9,-23.6 -32.4,-53.96 -32.4,-85.49 0.01,-36.03 14.48,-69.46 40.74,-94.14z"/>
  </g>
 </g>
</svg>
