<?xml version="1.0" encoding="UTF-8"?>
<!DOCTYPE svg PUBLIC "-//W3C//DTD SVG 1.1//EN" "http://www.w3.org/Graphics/SVG/1.1/DTD/svg11.dtd">
<!-- Creator: CorelDRAW 2017 -->
<svg xmlns="http://www.w3.org/2000/svg" xml:space="preserve" width="27mm" height="7mm" version="1.1" style="shape-rendering:geometricPrecision; text-rendering:geometricPrecision; image-rendering:optimizeQuality; fill-rule:evenodd; clip-rule:evenodd"
viewBox="0 0 2700 700"
 xmlns:xlink="http://www.w3.org/1999/xlink">
 <defs>
  <style type="text/css">
   <![CDATA[
    .fil0 {fill:#2B2A29}
    .fil1 {fill:#171717}
   ]]>
  </style>
 </defs>
 <g id="Слой_x0020_1">
  <metadata id="CorelCorpID_0Corel-Layer"/>
  <g id="_1842408771008">
   <g>
    <path class="fil0" d="M1020.4 359.62c14.52,-14.16 19.66,-34.94 13.39,-54.23 -6.27,-19.29 -22.64,-33.09 -42.71,-36.01l-57.57 -8.36c-1.13,-0.17 -2.1,-0.87 -2.61,-1.9l-25.75 -52.16c-8.97,-18.19 -27.15,-29.49 -47.44,-29.49 -20.28,0 -38.46,11.29 -47.44,29.49l-25.75 52.17c-0.51,1.02 -1.48,1.73 -2.6,1.89l-57.58 8.36c-20.07,2.92 -36.44,16.72 -42.71,36.01 -6.26,19.29 -1.13,40.07 13.39,54.23l41.66 40.61c0.82,0.79 1.19,1.93 0.99,3.06l-9.83 57.34c-3.43,19.99 4.64,39.82 21.05,51.74 16.41,11.92 37.76,13.47 55.71,4.03l51.5 -27.07c1.01,-0.54 2.21,-0.54 3.22,0l51.49 27.07c7.81,4.1 16.26,6.13 24.67,6.13 10.92,0 21.78,-3.42 31.05,-10.16 16.41,-11.92 24.47,-31.75 21.04,-51.74l-9.83 -57.34c-0.19,-1.12 0.18,-2.27 0.99,-3.06l41.67 -40.61zm-76.18 5.2c-12.47,12.16 -18.16,29.67 -15.21,46.83l9.84 57.34c0.09,0.58 0.36,2.12 -1.38,3.38 -1.74,1.27 -3.13,0.54 -3.65,0.27l-51.49 -27.07c-7.71,-4.06 -16.16,-6.08 -24.62,-6.08 -8.46,0 -16.91,2.02 -24.62,6.07l-51.49 27.08c-0.52,0.27 -1.91,1 -3.65,-0.27 -1.74,-1.26 -1.48,-2.8 -1.37,-3.38l9.83 -57.34c2.94,-17.17 -2.75,-34.67 -15.22,-46.83l-41.66 -40.6c-0.42,-0.42 -1.53,-1.51 -0.87,-3.55 0.66,-2.05 2.21,-2.27 2.79,-2.36l57.58 -8.36c17.23,-2.51 32.12,-13.33 39.82,-28.94l25.75 -52.16c0.26,-0.53 0.95,-1.93 3.1,-1.93 2.15,0 2.84,1.4 3.11,1.93l25.74 52.16c7.7,15.62 22.6,26.44 39.84,28.95l57.57 8.36c0.58,0.09 2.13,0.31 2.79,2.35 0.66,2.05 -0.45,3.14 -0.87,3.55l-41.66 40.6z"/>
    <path class="fil0" d="M494.63 460.63l-9.84 -57.34c-0.19,-1.12 0.18,-2.26 1,-3.06l41.66 -40.61c14.52,-14.16 19.65,-34.94 13.39,-54.23 -6.27,-19.29 -22.64,-33.09 -42.71,-36.01l-57.57 -8.36c-1.13,-0.16 -2.1,-0.87 -2.61,-1.89l-25.75 -52.17c-8.97,-18.19 -27.15,-29.49 -47.44,-29.49 -20.28,0 -38.46,11.3 -47.44,29.49l-25.75 52.17c-0.5,1.02 -1.48,1.73 -2.6,1.89l-57.58 8.36c-20.07,2.92 -36.44,16.72 -42.7,36.01 -6.27,19.3 -1.14,40.07 13.38,54.23l41.66 40.61c0.82,0.8 1.19,1.94 1,3.06l-9.84 57.34c-3.42,19.99 4.64,39.82 21.05,51.74 16.41,11.93 37.76,13.47 55.72,4.03l51.49 -27.07c1.01,-0.53 2.21,-0.53 3.22,0l51.5 27.07c7.81,4.1 16.26,6.14 24.67,6.14 10.92,0 21.77,-3.43 31.05,-10.17 16.4,-11.92 24.46,-31.75 21.04,-51.74l0 0zm-43.35 -95.81c-12.48,12.16 -18.16,29.66 -15.22,46.83l9.83 57.34c0.1,0.58 0.37,2.12 -1.37,3.38 -1.74,1.27 -3.13,0.54 -3.65,0.27l-51.49 -27.08c-7.71,-4.05 -16.17,-6.07 -24.62,-6.07 -8.46,0 -16.91,2.02 -24.62,6.07l-51.49 27.08c-0.52,0.27 -1.91,1 -3.65,-0.27 -1.74,-1.26 -1.47,-2.8 -1.37,-3.38l9.83 -57.34c2.95,-17.17 -2.74,-34.67 -15.21,-46.82l-41.66 -40.62c-0.42,-0.41 -1.54,-1.5 -0.88,-3.54 0.66,-2.05 2.21,-2.27 2.79,-2.36l57.58 -8.36c17.23,-2.51 32.12,-13.33 39.83,-28.94l25.75 -52.17c0.26,-0.53 0.95,-1.92 3.1,-1.92 2.15,0 2.84,1.4 3.1,1.92l25.75 52.17c7.7,15.61 22.59,26.43 39.83,28.95l57.57 8.36c0.59,0.08 2.13,0.31 2.8,2.35 0.66,2.05 -0.46,3.14 -0.88,3.55l-41.65 40.6z"/>
    <path class="fil0" d="M1513.35 359.62c14.52,-14.16 19.66,-34.94 13.39,-54.23 -6.27,-19.29 -22.64,-33.09 -42.71,-36.01l-57.57 -8.36c-1.13,-0.17 -2.1,-0.87 -2.61,-1.9l-25.75 -52.16c-8.97,-18.19 -27.15,-29.49 -47.44,-29.49 -20.28,0 -38.46,11.29 -47.44,29.49l-25.75 52.16c-0.51,1.02 -1.48,1.73 -2.6,1.9l-57.58 8.36c-20.08,2.92 -36.44,16.72 -42.71,36.01 -6.26,19.29 -1.13,40.07 13.39,54.23l41.66 40.61c0.82,0.79 1.19,1.94 0.99,3.06l-9.83 57.34c-3.43,19.99 4.64,39.82 21.05,51.74 16.4,11.93 37.75,13.47 55.71,4.03l51.5 -27.07c1,-0.53 2.21,-0.53 3.21,0l51.5 27.07c7.81,4.11 16.26,6.14 24.67,6.14 10.92,0 21.78,-3.43 31.05,-10.17 16.41,-11.92 24.47,-31.75 21.04,-51.74l-9.83 -57.33c-0.2,-1.13 0.18,-2.27 0.99,-3.07l41.67 -40.61zm-76.17 5.2c-12.48,12.16 -18.16,29.67 -15.22,46.83l9.84 57.34c0.09,0.58 0.36,2.12 -1.38,3.38 -1.74,1.27 -3.13,0.54 -3.65,0.27l-51.49 -27.07c-7.71,-4.06 -16.16,-6.08 -24.62,-6.08 -8.45,0 -16.91,2.02 -24.62,6.07l-51.49 27.08c-0.52,0.27 -1.91,1 -3.65,-0.27 -1.73,-1.26 -1.47,-2.8 -1.37,-3.38l9.83 -57.33c2.94,-17.17 -2.74,-34.68 -15.21,-46.84l-41.66 -40.61c-0.42,-0.41 -1.54,-1.5 -0.88,-3.54 0.67,-2.05 2.22,-2.28 2.8,-2.36l57.57 -8.36c17.23,-2.51 32.12,-13.33 39.83,-28.94l25.75 -52.17c0.26,-0.53 0.95,-1.93 3.1,-1.93 2.15,0 2.84,1.41 3.1,1.93l25.75 52.16c7.7,15.62 22.59,26.44 39.84,28.95l57.56 8.37c0.59,0.08 2.14,0.31 2.8,2.35 0.66,2.04 -0.46,3.14 -0.88,3.55l-41.65 40.6z"/>
    <path class="fil0" d="M2004.96 359.62c14.53,-14.16 19.66,-34.94 13.39,-54.23 -6.27,-19.29 -22.63,-33.09 -42.71,-36.01l-57.56 -8.36c-1.13,-0.17 -2.11,-0.87 -2.61,-1.9l-25.75 -52.16c-8.98,-18.19 -27.15,-29.49 -47.44,-29.49 -20.29,0 -38.47,11.29 -47.45,29.49l-25.74 52.17c-0.51,1.02 -1.48,1.73 -2.61,1.89l-57.57 8.36c-20.08,2.92 -36.44,16.72 -42.71,36.01 -6.27,19.29 -1.14,40.07 13.39,54.23l41.66 40.61c0.81,0.79 1.18,1.93 0.99,3.06l-9.83 57.34c-3.43,19.99 4.63,39.82 21.04,51.74 16.41,11.92 37.76,13.47 55.72,4.03l51.5 -27.07c1,-0.54 2.21,-0.54 3.21,0l51.5 27.07c7.81,4.1 16.26,6.13 24.67,6.13 10.92,0 21.77,-3.42 31.05,-10.16 16.4,-11.92 24.47,-31.75 21.04,-51.74l-9.83 -57.34c-0.2,-1.12 0.17,-2.27 0.99,-3.06l41.66 -40.61zm-76.17 5.2c-12.47,12.16 -18.16,29.67 -15.21,46.83l9.83 57.34c0.1,0.58 0.36,2.12 -1.38,3.38 -1.73,1.27 -3.13,0.54 -3.64,0.27l-51.49 -27.07c-7.72,-4.06 -16.17,-6.08 -24.63,-6.08 -8.45,0 -16.91,2.02 -24.61,6.07l-51.5 27.08c-0.52,0.27 -1.9,1 -3.64,-0.27 -1.74,-1.26 -1.48,-2.8 -1.38,-3.38l9.83 -57.34c2.95,-17.17 -2.74,-34.67 -15.21,-46.83l-41.66 -40.6c-0.42,-0.42 -1.54,-1.51 -0.88,-3.55 0.67,-2.05 2.22,-2.27 2.8,-2.36l57.57 -8.36c17.24,-2.51 32.13,-13.33 39.83,-28.94l25.75 -52.16c0.26,-0.53 0.95,-1.93 3.1,-1.93 2.15,0 2.84,1.4 3.1,1.93l25.75 52.16c7.7,15.62 22.59,26.44 39.84,28.95l57.56 8.36c0.59,0.09 2.14,0.31 2.8,2.35 0.66,2.05 -0.46,3.14 -0.88,3.55l-41.65 40.6z"/>
    <path class="fil0" d="M2497.92 359.62c14.52,-14.16 19.65,-34.94 13.38,-54.23 -6.26,-19.29 -22.63,-33.09 -42.71,-36.01l-57.56 -8.36c-1.13,-0.17 -2.11,-0.87 -2.61,-1.9l-25.75 -52.16c-8.98,-18.19 -27.16,-29.49 -47.44,-29.49 -20.29,0 -38.47,11.29 -47.45,29.49l-25.74 52.16c-0.51,1.02 -1.48,1.73 -2.61,1.9l-57.57 8.36c-20.08,2.92 -36.44,16.72 -42.71,36.01 -6.27,19.29 -1.14,40.07 13.39,54.23l41.66 40.61c0.81,0.79 1.18,1.94 0.99,3.06l-9.83 57.34c-3.43,19.99 4.63,39.82 21.04,51.74 16.41,11.93 37.76,13.47 55.72,4.03l51.49 -27.07c1.01,-0.53 2.22,-0.53 3.22,0l51.5 27.07c7.81,4.11 16.26,6.14 24.66,6.14 10.93,0 21.78,-3.43 31.05,-10.17 16.41,-11.92 24.48,-31.75 21.04,-51.74l-9.83 -57.33c-0.19,-1.13 0.18,-2.27 1,-3.07l41.67 -40.61zm-76.18 5.2c-12.47,12.16 -18.16,29.67 -15.21,46.83l9.83 57.34c0.1,0.58 0.36,2.12 -1.38,3.38 -1.73,1.27 -3.13,0.54 -3.64,0.27l-51.49 -27.07c-7.71,-4.06 -16.17,-6.08 -24.62,-6.08 -8.46,0 -16.92,2.02 -24.62,6.07l-51.5 27.08c-0.51,0.27 -1.9,1 -3.64,-0.27 -1.74,-1.26 -1.47,-2.8 -1.38,-3.38l9.83 -57.33c2.95,-17.17 -2.74,-34.68 -15.21,-46.84l-41.66 -40.61c-0.41,-0.41 -1.54,-1.5 -0.87,-3.54 0.67,-2.05 2.21,-2.28 2.79,-2.36l57.58 -8.36c17.23,-2.51 32.12,-13.33 39.83,-28.94l25.75 -52.17c0.26,-0.53 0.95,-1.93 3.1,-1.93 2.15,0 2.84,1.41 3.1,1.93l25.74 52.16c7.71,15.62 22.6,26.44 39.84,28.95l57.57 8.37c0.58,0.08 2.13,0.31 2.79,2.35 0.67,2.04 -0.45,3.14 -0.87,3.55l-41.66 40.6z"/>
   </g>
   <path class="fil1" d="M2610.86 27.02l-859.44 0c-13.66,0 -24.73,11.07 -24.73,24.72 0,13.66 11.07,24.73 24.73,24.73l859.44 0c13.64,0 24.73,11.09 24.73,24.72l0 497.62c0,13.63 -11.09,24.72 -24.73,24.72l-609.67 0 -70.58 0 -16.19 0 -33.27 0 -76.03 0 -49.44 0 -58.81 0 -36.68 0 -1057.79 0c-13.66,0 -24.73,11.07 -24.73,24.72 0,13.66 11.07,24.73 24.73,24.73l1057.79 0 95.49 0 49.44 0 76.03 0 33.27 0 33.84 0 0 0 662.6 0c40.9,0 74.17,-33.27 74.17,-74.16l0 -497.63c0,-40.9 -33.27,-74.17 -74.17,-74.17l0 0zm-2191.54 596.51l-330.19 0c-13.63,0 -24.72,-11.09 -24.72,-24.73l0 -497.61c0,-13.63 11.09,-24.72 24.72,-24.72l1480.86 0c13.66,0 24.72,-11.07 24.72,-24.73 0,-13.65 -11.06,-24.72 -24.72,-24.72l-1480.86 0c-40.9,0 -74.17,33.27 -74.17,74.17l0 497.61c0,40.9 33.27,74.17 74.17,74.17l330.19 0c13.66,0 24.73,-11.07 24.73,-24.72 0,-13.66 -11.07,-24.72 -24.73,-24.72z"/>
  </g>
 </g>
</svg>
