<?xml version="1.0" encoding="UTF-8"?>
<!DOCTYPE svg PUBLIC "-//W3C//DTD SVG 1.1//EN" "http://www.w3.org/Graphics/SVG/1.1/DTD/svg11.dtd">
<!-- Creator: CorelDRAW 2017 -->
<svg xmlns="http://www.w3.org/2000/svg" xml:space="preserve" width="8mm" height="8mm" version="1.1" style="shape-rendering:geometricPrecision; text-rendering:geometricPrecision; image-rendering:optimizeQuality; fill-rule:evenodd; clip-rule:evenodd"
viewBox="0 0 800 800"
 xmlns:xlink="http://www.w3.org/1999/xlink">
 <defs>
  <style type="text/css">
   <![CDATA[
    .fil0 {fill:#FEFEFE;fill-rule:nonzero}
   ]]>
  </style>
 </defs>
 <g id="Слой_x0020_1">
  <metadata id="CorelCorpID_0Corel-Layer"/>
  <path class="fil0" d="M562.94 207.21c18.56,10.75 35.38,24.02 50.17,39.34 40.41,42.01 64.82,99.46 63.59,162.37 -1.22,62.89 -27.83,119.34 -69.83,159.76 -12.21,11.73 -25.73,22.11 -40.27,30.92 -18.53,12.86 -31.55,-7.42 -11.37,-18.88 13.14,-7.94 25.35,-17.31 36.36,-27.91 37.95,-36.51 62,-87.51 63.09,-144.32 1.09,-56.83 -20.94,-108.73 -57.43,-146.68 -13.34,-13.84 -28.56,-25.82 -45.34,-35.53 -15.92,-11.21 -5.69,-28.85 11.03,-19.07zm-114.2 -183.28l-13.85 0c-6.08,0 -11.01,4.93 -11.01,11.02 0,6.09 4.93,11.01 11.01,11.01l13.85 0c17.48,0 31.73,14.24 31.73,31.72l0 74.44 -405.13 0 0 -74.44c0,-17.48 14.25,-31.72 31.73,-31.72l276.41 0c6.07,0 11.02,-4.92 11.02,-11.01 0,-6.09 -4.95,-11.02 -11.02,-11.02l-276.41 0c-29.64,0 -53.76,24.11 -53.76,53.75l0 387.35c0,6.09 4.94,11.02 11.02,11.02 6.09,0 11.01,-4.93 11.01,-11.02l0 -290.88 405.13 0 0 455.02 -405.13 0 0 -112.72c0,-6.08 -4.92,-11.01 -11.01,-11.01 -6.08,0 -11.02,4.93 -11.02,11.01l0 205.86c0,29.64 24.12,53.76 53.76,53.76l341.67 0c29.64,0 53.76,-24.12 53.76,-53.76l0 -644.63c0,-29.64 -24.12,-53.75 -53.76,-53.75l0 0zm-225.65 63.35l109.63 0c6.03,0 10.95,4.92 10.95,10.95l0 0c0,6.01 -4.92,10.94 -10.95,10.94l-109.63 0c-6.03,0 -10.95,-4.93 -10.95,-10.94l0 0c0,-6.03 4.92,-10.95 10.95,-10.95zm54.82 599.03c9.85,0 17.84,7.99 17.84,17.84 0,9.87 -7.99,17.85 -17.84,17.85 -9.86,0 -17.85,-7.98 -17.85,-17.85 0,-9.85 7.99,-17.84 17.85,-17.84zm0 -18.96c-20.33,0 -36.8,16.48 -36.8,36.8 0,20.32 16.47,36.81 36.8,36.81 20.32,0 36.79,-16.49 36.79,-36.81 0,-20.32 -16.47,-36.8 -36.79,-36.8zm170.83 86.69l-341.67 0c-17.49,0 -31.73,-14.24 -31.73,-31.73l0 -71.11 405.13 0 0 71.11c0,17.49 -14.25,31.73 -31.73,31.73zm149.19 -607.4c-17.58,-9.61 -28.36,9.09 -11.01,19.08 22.43,13.01 42.88,29.07 60.72,47.63 48.92,50.84 78.45,120.37 76.96,196.49 -1.48,76.11 -33.67,144.45 -84.53,193.37 -14.76,14.2 -31.1,26.76 -48.73,37.42 -18.73,11.54 -9.49,32.05 11.38,18.87 19.03,-11.5 36.68,-25.08 52.62,-40.42 54.91,-52.8 89.69,-126.63 91.29,-208.81 1.59,-82.21 -30.29,-157.28 -83.1,-212.2 -19.29,-20.03 -41.35,-37.39 -65.6,-51.43z"/>
 </g>
</svg>
